<svg xmlns="http://www.w3.org/2000/svg" xmlns:xlink="http://www.w3.org/1999/xlink" viewBox="0 0 254.77 38.07"><defs><style>.cls-1,.cls-6{fill:none;}.cls-2{fill:#231815;}.cls-3{fill:#fff;}.cls-4{fill:#00a29a;}.cls-5{fill:#fff100;}.cls-6{stroke:#fff100;stroke-miterlimit:10;stroke-width:0.35px;}.cls-7{clip-path:url(#clip-path);}</style><clipPath id="clip-path"><path class="cls-1" d="M51.83,18.59,39.56,20.91V4.2H51.83Zm40,16.7.49-15.08-9.11,1.56V36.82ZM76.47,10.13H71V24l5.46-1.37Zm36.11,11.25H101.11V28h11.47ZM126.08.11H117.2V7.72L126.31,6ZM134.6,19l16.45-3-.23-8.84L134.6,10.1Zm51.15,5-12.09,2.33v10.5h12.09ZM173.69,6.86l5.23,6.79,7.19-10.46-8.26-.81-2.76,1.13L174,5.5Z"/></clipPath></defs><g id="レイヤー_2" data-name="レイヤー 2"><g id="文字"><path class="cls-2" d="M46.31,7l3.29-.58V30.56l-3.14,7.51-2.83-1,2.68-6.4ZM58.85,32l-3.29.58V6.87l3.29-.58Zm8.87,2-3.32.59V3.78l3.32-.59Z"/><path class="cls-2" d="M80.15,28.67v-18l2.71-.47V30.83L73.38,32.5V11.85l2.68-.47v18l.65-.11V6.86l2.56-.45V28.82Zm3-7.3V18.65l14.27-2.51v2.71l-1.61.28V34.24l-3.06.54V19.67Zm0-5.44,5.62-3.59v-2l-5.39.95V8.54l5.39-.95V4.73l3-.53V7.07L97,6.15V8.87l-5.21.91v1.88l5.78,1.58-1.42,2.85L90.4,14.51l-5.85,3.74Zm1,17.91V22.18l7.19-1.27V32.58Zm2.64-9.76V31l2-.35V23.74Z"/><path class="cls-2" d="M126.08,19.73v3l-10.37,1.82V35.87l-5.43,1-1.57-2.67,3.87-.68V25.1l-10.37,1.83v-3l10.37-1.83V17.56l2.71-.48L116.48,15l-9.72,1.71V13.92l15.11-2.66L116.06,21.5Zm-20.27-7v4.1l-3.21.56V10.3l3.82-.68L104.51,7l3.94-.69,1.3,1.8L108,9.35l4.74-.84L110.82,5.9l3.94-.69L116,7l-1.8,1.24,4.48-.79,1.91-3.28,3.75-.67-1.88,3.28,3.22-.57v7l-3.22.57v-4Z"/><path class="cls-2" d="M131.35,7.57l23-4.05V33.81l-23,4Zm19.7,23.72V7.2L134.6,10.1V34.19Zm-.46-18.12v2.64l-15.53,2.73V15.91l6.27-1.11V13.65l-4.89.87V12l4.89-.86V9.29l3-.52v1.87l4.89-.86v2.48l-4.89.87v1.14ZM146.65,24l3.67-.65-2.83,3.18,2.83,2.21L149,31.51l-4.63-3.66v4.4l-3,.53V27.57L136.59,33l-1.3-2.22L141,24.28l-4.78.84V18.85l13.35-2.36v6.27l-4.71.83-.42.46,1.27,1ZM139,20.71v1.53l7.53-1.33V19.38Z"/><path class="cls-2" d="M183.59,19.72l-1.49,2.87v1.64l-9,1.59v10l-3.13.55V26.38l-9,1.59v-1.3l-1.49-2.57,5.28-8.69-1.65,1.2-1.57-2L160.64,16l-1.45-2.46,4.13-6.85,3.29-.58-.57,1,7.53-1.33L161.94,25l19.17-3.38-9-11.68,1.61-3.08.34.44V5.5l9.29-1.64-5.27,8.66ZM161,35.14,165.35,28l3.56-.63-6.32,10.41Zm2.37-22.3,1.6,2.09,1.53-2.52-1.18.86L163.63,11l-1.19,2Zm5.12-3.73-4.17.74-.3.47,2-.36,1.11,1.41Zm9.14,8.22v2.79l-12.31,2.17V19.5Zm-3.59,9.16,3.63-.64,4.4,5.69-1.61,3.3Zm3.78-19.1L174.57,8l1.64,2.16Z"/><rect class="cls-2" x="191.56" y="13.96" width="63.21" height="14.85"/><path class="cls-3" d="M202.31,25.69a2.59,2.59,0,0,1-1.43-.34,2,2,0,0,1-.77-1,4.69,4.69,0,0,1-.23-1.53V19.47a4.21,4.21,0,0,1,.24-1.5,1.88,1.88,0,0,1,.76-1,2.7,2.7,0,0,1,1.43-.33,2.57,2.57,0,0,1,1.42.34,1.81,1.81,0,0,1,.75,1,4.12,4.12,0,0,1,.24,1.49v3.36a4.31,4.31,0,0,1-.24,1.51,2,2,0,0,1-.75,1A2.49,2.49,0,0,1,202.31,25.69Zm0-1a1.14,1.14,0,0,0,.74-.2,1,1,0,0,0,.34-.57,3.61,3.61,0,0,0,.08-.85V19.22a3.42,3.42,0,0,0-.08-.84,1,1,0,0,0-.34-.55,1.21,1.21,0,0,0-.74-.19,1.22,1.22,0,0,0-.75.19.9.9,0,0,0-.34.55,3.37,3.37,0,0,0-.09.84V23.1a3.57,3.57,0,0,0,.09.85.92.92,0,0,0,.34.57A1.16,1.16,0,0,0,202.31,24.72Z"/><path class="cls-3" d="M209.2,25.6V16.76H210l2.51,5.87V16.76h1V25.6h-.79l-2.54-6v6Z"/><path class="cls-3" d="M218.24,25.6V16.76h1.23v8h2.26v.89Z"/><path class="cls-3" d="M225.91,25.6V16.76h1.21V25.6Z"/><path class="cls-3" d="M231.83,25.6V16.76h.84l2.51,5.87V16.76h1V25.6h-.78l-2.54-6v6Z"/><path class="cls-3" d="M240.86,25.6V16.76h3.43v.91H242.1V20.6h1.78v.87H242.1v3.24h2.21v.89Z"/><circle class="cls-4" cx="18.61" cy="18.61" r="18.61" transform="translate(-5.91 28.17) rotate(-66.3)"/><path class="cls-5" d="M12.32,22.88a2.35,2.35,0,0,1-.41.51,1.91,1.91,0,0,0-.45-.23,2.64,2.64,0,0,0,.29-.28h-.63s.15.29.2.39a2,2,0,0,0-.47.09,4,4,0,0,0-.2-.48h-.21a5.57,5.57,0,0,1-.37.53,1.68,1.68,0,0,0-.46-.2,3,3,0,0,0,.72-1.12l.45.1c.06,0,.07,0,.07.06s0,.06-.12.07a1.59,1.59,0,0,1-.08.18h1.13v.35a2.71,2.71,0,0,0,.47-.79l.47.11s.06,0,.06.06,0,.06-.13.08a2,2,0,0,0-.1.19H14v.38h-.84a1.34,1.34,0,0,1,.15.35,2.89,2.89,0,0,0-.5.08,2.2,2.2,0,0,0-.16-.43Zm-.68,2.57a4.67,4.67,0,0,1-1.61,1,1,1,0,0,0-.35-.37,4.11,4.11,0,0,0,1.58-.79h-.68a1.12,1.12,0,0,0-.05.22,1.58,1.58,0,0,0-.5-.06,8.38,8.38,0,0,0,.26-1.35l.45.07h.9v-.32H10v-.4h3.61v1.1H12.11v.33H13.9A2.66,2.66,0,0,1,13.61,26c-.1.16-.2.27-.84.25a1.21,1.21,0,0,0-.17-.49,2.73,2.73,0,0,0,.4,0c.16,0,.27,0,.35-.52H12.11v1.16h-.47Zm0-.92H10.7c0,.23,0,.27,0,.33h1Zm.47-.38h1v-.32h-1Z"/><path class="cls-5" d="M17,26.37V24.93H15.4v-.74L16.81,21h.83V24.3h.61v.63h-.61v1.44Zm-.87-2.07H17V21.86Z"/><path class="cls-5" d="M19.63,26.37l1-4.82H19.16V21h2.15v.35l-1,5Z"/><path class="cls-5" d="M24.27,26.15v.26h-.48V22.3h3.93v4.1h-.48v-.25Zm3-.41v-3h-3v3Zm-2-.69v.24h-.49v-2h2v2h-.49v-.24Zm1-.42v-.94h-1v.94Z"/><path class="cls-5" d="M6.62,16.51v-.65l1.76-2.74.37-.57A3.2,3.2,0,0,0,9,12a2.06,2.06,0,0,0,.11-.68A1.44,1.44,0,0,0,9,10.56a.55.55,0,0,0-.53-.28.69.69,0,0,0-.51.18,1,1,0,0,0-.25.47,3.13,3.13,0,0,0-.06.63v.23H6.7v-.24a3,3,0,0,1,.17-1.07,1.36,1.36,0,0,1,.54-.7,1.67,1.67,0,0,1,1-.25A1.55,1.55,0,0,1,9.64,10a1.94,1.94,0,0,1,.41,1.31,2.55,2.55,0,0,1-.11.77,3.23,3.23,0,0,1-.27.63c-.12.19-.24.39-.38.6L7.7,15.74H9.89v.77Z"/><path class="cls-5" d="M13.42,16.59a1.66,1.66,0,0,1-1-.27,1.55,1.55,0,0,1-.56-.72,2.89,2.89,0,0,1-.18-1v-3a2.91,2.91,0,0,1,.18-1.06,1.47,1.47,0,0,1,.56-.71,1.68,1.68,0,0,1,1-.26,1.72,1.72,0,0,1,1,.26,1.51,1.51,0,0,1,.55.71,2.91,2.91,0,0,1,.18,1.06v3a2.85,2.85,0,0,1-.18,1,1.58,1.58,0,0,1-.56.73A1.68,1.68,0,0,1,13.42,16.59Zm0-.76a.63.63,0,0,0,.49-.18,1.08,1.08,0,0,0,.24-.49,3,3,0,0,0,.06-.61v-3a3.06,3.06,0,0,0-.06-.63,1,1,0,0,0-.23-.48.64.64,0,0,0-.5-.18.65.65,0,0,0-.5.18,1,1,0,0,0-.23.48,3.06,3.06,0,0,0-.06.63v3a3,3,0,0,0,.06.61,1.18,1.18,0,0,0,.24.49A.66.66,0,0,0,13.42,15.83Z"/><path class="cls-5" d="M16.83,16.51v-.65l1.76-2.74.36-.57a3.25,3.25,0,0,0,.28-.56,2.07,2.07,0,0,0,.1-.68,1.56,1.56,0,0,0-.15-.75.55.55,0,0,0-.54-.28.68.68,0,0,0-.5.18,1,1,0,0,0-.25.47,2.53,2.53,0,0,0-.07.63v.23h-.91v-.24a3.05,3.05,0,0,1,.16-1.07,1.42,1.42,0,0,1,.54-.7,1.73,1.73,0,0,1,1-.25,1.56,1.56,0,0,1,1.25.48,1.94,1.94,0,0,1,.41,1.31,2.55,2.55,0,0,1-.11.77,2.75,2.75,0,0,1-.28.63c-.11.19-.24.39-.37.6l-1.59,2.42h2.18v.77Z"/><path class="cls-5" d="M22.88,16.51V10.79l-.19.05a3.94,3.94,0,0,1-.42.08l-.41.08-.19,0v-.7l.34-.09a3.12,3.12,0,0,0,.39-.15,1.47,1.47,0,0,0,.39-.21,1.11,1.11,0,0,0,.31-.3h.69v6.92Z"/><path class="cls-5" d="M28.86,13.93H30v.49H28.86v.87h1.8v.49h-1.8v1.13h-.57V15.78H25.86v-.49h.89V13.93h1.54v-.72H27a6.52,6.52,0,0,1-.74.94,2,2,0,0,0-.5-.29,4.48,4.48,0,0,0,1.19-1.8l.54.17s.08,0,.08.08-.08.07-.15.07c-.06.16-.1.24-.14.33h3.19v.5h-1.6Zm-.57.49h-1v.87h1Z"/><rect class="cls-6" x="6.65" y="19.38" width="24.14" height="8.66"/><g class="cls-7"><path class="cls-4" d="M46.31,7l3.29-.58V30.56l-3.14,7.51-2.83-1,2.68-6.4ZM58.85,32l-3.29.58V6.87l3.29-.58Zm8.87,2-3.32.59V3.78l3.32-.59Z"/><path class="cls-4" d="M80.15,28.67v-18l2.71-.47V30.83L73.38,32.5V11.85l2.68-.47v18l.65-.11V6.86l2.56-.45V28.82Zm3-7.3V18.65l14.27-2.51v2.71l-1.61.28V34.24l-3.06.54V19.67Zm0-5.44,5.62-3.59v-2l-5.39.95V8.54l5.39-.95V4.73l3-.53V7.07L97,6.15V8.87l-5.21.91v1.88l5.78,1.58-1.42,2.85L90.4,14.51l-5.85,3.74Zm1,17.91V22.18l7.19-1.27V32.58Zm2.64-9.76V31l2-.35V23.74Z"/><path class="cls-4" d="M126.08,19.73v3l-10.37,1.82V35.87l-5.43,1-1.57-2.67,3.87-.68V25.1l-10.37,1.83v-3l10.37-1.83V17.56l2.71-.48L116.48,15l-9.72,1.71V13.92l15.11-2.66L116.06,21.5Zm-20.27-7v4.1l-3.21.56V10.3l3.82-.68L104.51,7l3.94-.69,1.3,1.8L108,9.35l4.74-.84L110.82,5.9l3.94-.69L116,7l-1.8,1.24,4.48-.79,1.91-3.28,3.75-.67-1.88,3.28,3.22-.57v7l-3.22.57v-4Z"/><path class="cls-4" d="M131.35,7.57l23-4.05V33.81l-23,4Zm19.7,23.72V7.2L134.6,10.1V34.19Zm-.46-18.12v2.64l-15.53,2.73V15.91l6.27-1.11V13.65l-4.89.87V12l4.89-.86V9.29l3-.52v1.87l4.89-.86v2.48l-4.89.87v1.14ZM146.65,24l3.67-.65-2.83,3.18,2.83,2.21L149,31.51l-4.63-3.66v4.4l-3,.53V27.57L136.59,33l-1.3-2.22L141,24.28l-4.78.84V18.85l13.35-2.36v6.27l-4.71.83-.42.46,1.27,1ZM139,20.71v1.53l7.53-1.33V19.38Z"/><path class="cls-4" d="M183.59,19.72l-1.49,2.87v1.64l-9,1.59v10l-3.13.55V26.38l-9,1.59v-1.3l-1.49-2.57,5.28-8.69-1.65,1.2-1.57-2L160.64,16l-1.45-2.46,4.13-6.85,3.29-.58-.57,1,7.53-1.33L161.94,25l19.17-3.38-9-11.68,1.61-3.08.34.44V5.5l9.29-1.64-5.27,8.66ZM161,35.14,165.35,28l3.56-.63-6.32,10.41Zm2.37-22.3,1.6,2.09,1.53-2.52-1.18.86L163.63,11l-1.19,2Zm5.12-3.73-4.17.74-.3.47,2-.36,1.11,1.41Zm9.14,8.22v2.79l-12.31,2.17V19.5Zm-3.59,9.16,3.63-.64,4.4,5.69-1.61,3.3Zm3.78-19.1L174.57,8l1.64,2.16Z"/></g></g></g></svg>