<svg xmlns="http://www.w3.org/2000/svg" viewBox="0 0 73.65 16.44"><defs><style>.cls-1{fill:#e72410;}.cls-2{fill:#fff;}.cls-3{fill:#3e3a39;}</style></defs><g id="レイヤー_2" data-name="レイヤー 2"><g id="文字"><path class="cls-1" d="M23,2.57A3,3,0,0,0,20.92.49C19.09,0,11.74,0,11.74,0S4.4,0,2.57.49A3,3,0,0,0,.49,2.57,30.58,30.58,0,0,0,0,8.22a30.58,30.58,0,0,0,.49,5.65A2.94,2.94,0,0,0,2.57,16c1.83.49,9.17.49,9.17.49s7.35,0,9.18-.49A2.94,2.94,0,0,0,23,13.87a30.58,30.58,0,0,0,.49-5.65A30.58,30.58,0,0,0,23,2.57Z"/><polygon class="cls-2" points="9.4 11.74 15.5 8.22 9.4 4.7 9.4 11.74"/><path class="cls-3" d="M34.09,15a2.59,2.59,0,0,1-1-1.46,9.83,9.83,0,0,1-.29-2.64V9.37a8.57,8.57,0,0,1,.34-2.68A2.66,2.66,0,0,1,34.2,5.22a3.45,3.45,0,0,1,1.87-.46,3.22,3.22,0,0,1,1.83.47,2.78,2.78,0,0,1,1,1.47,9.17,9.17,0,0,1,.32,2.67v1.49a9.47,9.47,0,0,1-.31,2.65,2.66,2.66,0,0,1-1,1.46,3.39,3.39,0,0,1-1.89.46A3.46,3.46,0,0,1,34.09,15Zm2.61-1.61a5.05,5.05,0,0,0,.19-1.65V8.49a4.93,4.93,0,0,0-.19-1.62A.7.7,0,0,0,36,6.36a.68.68,0,0,0-.67.51,5.22,5.22,0,0,0-.19,1.62V11.7a5.05,5.05,0,0,0,.19,1.65.67.67,0,0,0,.67.5A.7.7,0,0,0,36.7,13.35Z"/><path class="cls-3" d="M69.77,10.88v.53a13.34,13.34,0,0,0,.06,1.48,1.44,1.44,0,0,0,.24.72.69.69,0,0,0,.58.23.72.72,0,0,0,.71-.4,3.49,3.49,0,0,0,.21-1.35l2,.12c0,.09,0,.21,0,.37a2.73,2.73,0,0,1-.78,2.13,3.13,3.13,0,0,1-2.21.71,2.64,2.64,0,0,1-2.4-1.07A6.31,6.31,0,0,1,67.5,11V9.22a6.18,6.18,0,0,1,.72-3.38,2.72,2.72,0,0,1,2.44-1.07,3.21,3.21,0,0,1,1.83.44,2.29,2.29,0,0,1,.9,1.36,9.54,9.54,0,0,1,.26,2.55v1.76Zm.3-4.33a1.4,1.4,0,0,0-.24.71,14,14,0,0,0-.06,1.51v.74h1.7V8.77a11.58,11.58,0,0,0-.07-1.51,1.37,1.37,0,0,0-.24-.72.68.68,0,0,0-.55-.21A.66.66,0,0,0,70.07,6.55Z"/><path class="cls-3" d="M28.45,10.69,25.81,1.17h2.3L29,5.48c.23,1.07.41,2,.52,2.73h.07c.07-.54.25-1.44.52-2.71l1-4.33h2.31l-2.68,9.52v4.57H28.45Z"/><path class="cls-3" d="M46.71,5v10.3H44.9L44.7,14h-.06a2.37,2.37,0,0,1-2.21,1.43,1.72,1.72,0,0,1-1.51-.67,3.58,3.58,0,0,1-.49-2.1V5h2.32v7.56a2.37,2.37,0,0,0,.15,1,.53.53,0,0,0,.5.29,1,1,0,0,0,.58-.18,1.12,1.12,0,0,0,.41-.48V5Z"/><path class="cls-3" d="M58.6,5v10.3H56.79L56.59,14h-.05a2.39,2.39,0,0,1-2.22,1.43,1.72,1.72,0,0,1-1.51-.67,3.58,3.58,0,0,1-.49-2.1V5h2.32v7.56a2.37,2.37,0,0,0,.15,1,.53.53,0,0,0,.5.29,1,1,0,0,0,.58-.18,1.12,1.12,0,0,0,.41-.48V5Z"/><path class="cls-3" d="M53,3h-2.3V15.26H48.44V3h-2.3V1.17H53Z"/><path class="cls-3" d="M66.27,6.61a2.59,2.59,0,0,0-.68-1.41,1.82,1.82,0,0,0-1.29-.44,2.13,2.13,0,0,0-1.19.36,2.46,2.46,0,0,0-.86,1h0V.65H60V15.26h1.91l.24-1h.05a2,2,0,0,0,.81.82,2.36,2.36,0,0,0,1.19.3,1.83,1.83,0,0,0,1.73-1.08,7.8,7.8,0,0,0,.55-3.39V9.31A13.49,13.49,0,0,0,66.27,6.61Zm-2.12,4.2a13.24,13.24,0,0,1-.09,1.76,1.94,1.94,0,0,1-.32.91.7.7,0,0,1-.58.27,1.07,1.07,0,0,1-.53-.13,1.05,1.05,0,0,1-.4-.41V7.37a1.5,1.5,0,0,1,.41-.69.87.87,0,0,1,.62-.27.61.61,0,0,1,.54.28,2.06,2.06,0,0,1,.27.93,17.31,17.31,0,0,1,.08,1.86Z"/></g></g></svg>