<svg xmlns="http://www.w3.org/2000/svg" xmlns:xlink="http://www.w3.org/1999/xlink" viewBox="0 0 280.91 103.82"><defs><style>.cls-1{fill:none;}.cls-2{fill:#bae3f9;}.cls-3{fill:#fff799;}.cls-4{fill:#e84572;}.cls-5{clip-path:url(#clip-path);}.cls-6{fill:#fff;}.cls-7{fill:#231815;}.cls-8{fill:#fff100;}</style><clipPath id="clip-path" transform="translate(0 21.27)"><rect class="cls-1" x="65.87" width="193.9" height="50.33"/></clipPath></defs><g id="レイヤー_2" data-name="レイヤー 2"><g id="文字"><polygon class="cls-2" points="0 21.27 71.13 21.27 88.2 71.59 0 71.59 0 21.27"/><polygon class="cls-3" points="70.6 21.27 259.77 21.27 259.77 71.59 87.67 71.59 70.6 21.27"/><path class="cls-4" d="M15.47,18.68c.09,0,.36,0,.36.24s-.23.26-.36.26H14.42c-.44,0-.44.24-.44.9,0,.92,0,1.44.8,1.5.5.05.63.05.63.27s-.28.23-.41.23H11.58c-.13,0-.37,0-.37-.23s.2-.25.52-.25c1,0,1-.55,1-1.51,0-.62,0-.91-.41-.91H8.93c-.18,0-.36,0-.36-.28s0-.19.3-.63,3.92-6.55,4-6.72c.46-.74.5-.84.75-.84a.38.38,0,0,1,.29.16A17.12,17.12,0,0,1,14,13.1c0,.58,0,3.42,0,4.06,0,1.37,0,1.52.43,1.52Zm-3.12,0a.38.38,0,0,0,.4-.34c0-.13,0-1.81,0-2.7,0-.21,0-2.22,0-2.25s0-.21-.12-.21-.32.38-.41.53c-.32.54-2.84,4.69-2.84,4.82s.09.15.3.15Z" transform="translate(0 21.27)"/><path class="cls-4" d="M23.19,14.63a18.63,18.63,0,0,0-1.91,0l-.32,0c-.06,0-.09,0-.14-.09l-.29-.35c-.06-.08-.08-.08-.08-.11s0,0,.07,0l.66,0c.75,0,1.37.06,2.09.06H25.9c.47,0,.51,0,.51-2.14,0-.37,0-1.17-.09-2.1,0-.09-.06-.44-.06-.52s0-.12.09-.12a13,13,0,0,1,1.58.35c.2,0,.34.12.34.27s-.08.22-.25.35-.29.32-.32,1c0,.39-.12,2.16-.12,2.52s.28.35.52.35h2.63c.7,0,.77,0,1-.26.49-.62.55-.68.73-.68A3.84,3.84,0,0,1,34,14.42c0,.21-.3.21-.8.21H28.33c-.34,0-.44,0-.44.25,0,.93,2,5.44,6.27,7.13.41.16.41.16.41.22s-.07.13-.3.14a3.87,3.87,0,0,0-1.37.29,2.42,2.42,0,0,1-.5.27A7.87,7.87,0,0,1,30,20.56a15.17,15.17,0,0,1-2.37-5.15c0-.09-.08-.3-.11-.3s0,0-.11.36a9,9,0,0,1-4.78,7,6.58,6.58,0,0,1-2.27.82s-.09,0-.09-.06.34-.23.49-.3A10,10,0,0,0,26,16.5,12.22,12.22,0,0,0,26.26,15c0-.34-.17-.34-.41-.34Z" transform="translate(0 21.27)"/><path class="cls-4" d="M46.58,13.25c.6,0,.78,0,1-.26s.2-.27.36-.27c.32,0,1.45,1,1.45,1.31,0,.16-.2.24-.31.24l-.53-.08a2.63,2.63,0,0,0-1.6.76c-.12.1-.19.16-.27.16a.06.06,0,0,1-.06-.06c0-.17.52-1.05.52-1.19s-.2-.21-.41-.21h-9c-.27,0-.41,0-.48.3-.2.7-.38,1.48-1,1.48a.58.58,0,0,1-.56-.6c0-.32.07-.42.54-1.08a2.3,2.3,0,0,0,.45-1.21s0-.17.12-.17.26.27.42.67c.09.21.29.21.44.21Zm-5.12,5.41c.19,0,.47,0,.47-.39a5.79,5.79,0,0,0,0-.72c0-.23-.11-.53-.11-.59s0-.24.17-.24.77.19.91.19c.34,0,1.49-1.12,1.49-1.29s-.08-.1-.29-.1H40.49c-.36,0-1.4,0-1.91,0l-.34,0s-.07,0-.12-.09l-.3-.35c-.07-.07-.07-.07-.07-.1s0,0,0,0l.67.05c.44,0,1.23.06,2.1.06H44c.69,0,.75,0,1-.26s.25-.24.38-.24a2.21,2.21,0,0,1,1,1c0,.23-.14.26-.59.37A11.94,11.94,0,0,0,43.2,17.2c-.2.12-.23.14-.23,1.05,0,.41.33.41.48.41h2.63c.63,0,.84,0,1-.26.28-.51.33-.63.62-.63a2.91,2.91,0,0,1,1.4,1.09c0,.2-.31.2-.81.2H43.42c-.44,0-.44.12-.44.89a22.22,22.22,0,0,1-.07,2.39,1.1,1.1,0,0,1-1.23.88c-.22,0-.23-.09-.29-.27-.12-.41-.6-.61-1.23-.88-.19-.08-.35-.14-.35-.23s.09-.08.13-.08,1.28.18,1.52.18.44,0,.46-.77c0-.33,0-1.41,0-1.64s-.05-.47-.47-.47H38.56c-.36,0-1.4,0-1.93,0l-.32,0s-.07,0-.14-.09l-.28-.35c-.07-.07-.07-.07-.07-.1s0,0,0,0l.67,0c.44,0,1.23.06,2.1.06ZM37.8,9.85c.3,0,2.2.71,2.2,2.08a.53.53,0,0,1-.51.58c-.38,0-.44-.12-.9-1.1a5.6,5.6,0,0,0-.88-1.4s-.06-.1-.05-.13S37.77,9.85,37.8,9.85Zm5.52,1.68c0,.46-.28.78-.56.78-.48,0-.57-.58-.63-.9a8,8,0,0,0-.52-1.71s-.12-.26-.07-.31A2.62,2.62,0,0,1,43.32,11.53Zm4.16-.91c0,.14-.06.15-.33.23s-.34.14-.93.75A7.73,7.73,0,0,1,44.53,13a.06.06,0,0,1-.06-.06s.53-1,.6-1.11a8.19,8.19,0,0,0,.77-2c0-.29.06-.33.15-.33a.67.67,0,0,1,.29.12C46.68,9.89,47.48,10.38,47.48,10.62Z" transform="translate(0 21.27)"/><path class="cls-4" d="M54.05,18.62c.26,0,.4-.25.73-1.19.09-.26.14-.38.21-.38s.08.15.08.18-.35,1.95-.35,2.31a2.66,2.66,0,0,0,.24.79,1.67,1.67,0,0,1,.19.67.51.51,0,0,1-.51.52c-.94,0-1.64-2.58-1.64-4a10.84,10.84,0,0,1,.64-3.32,5.08,5.08,0,0,0,.26-1.58,3.86,3.86,0,0,0-.15-1.08,1.22,1.22,0,0,1-.09-.27s.06-.08.12-.08c.7,0,1.34,1.39,1.34,1.93,0,.17,0,.19-.29.7a11.84,11.84,0,0,0-1.17,3.92C53.66,18.16,53.81,18.62,54.05,18.62Zm8.83,1.52c0,.59-.45.77-2.58.77a3.12,3.12,0,0,1-2.37-.68c-.08-.08-.47-.47-.47-.76,0,0,0-.15.07-.15a2.32,2.32,0,0,1,.37.21,3.69,3.69,0,0,0,1.62.26,11.39,11.39,0,0,0,1.32-.05l1.34-.12C62.76,19.62,62.88,20,62.88,20.14Zm-.71-7.4c0,.74-1.69.74-1.87.74a3,3,0,0,1-2.66-1.12s0-.08.1-.08.23.06.43.11a5.67,5.67,0,0,0,1,.09,6.46,6.46,0,0,0,1.68-.23c.45-.17.5-.18.65-.17A.77.77,0,0,1,62.17,12.74Z" transform="translate(0 21.27)"/><path class="cls-4" d="M69.33,14.3c0-.05.08-.15.14-.15s.07,0,.07.1c0,.41-1.49,4.5-1.49,5.4a5.93,5.93,0,0,0,.4,1.79,3.63,3.63,0,0,1,.14.81.82.82,0,0,1-.75.83c-.7,0-.7-.82-.7-1.06s0-.62,0-.73c0-1.34-.48-1.49-1.06-1.64,0,0-.26-.08-.26-.12s.08-.08.23-.11c.62-.13,1.12-.82,1.56-1.7s1-2.07,1.43-2.87C69.12,14.76,69.28,14.38,69.33,14.3ZM68,15c0,.58-.4.65-.5.65-.29,0-.41-.3-.64-.83A7.29,7.29,0,0,0,66,13.54s-.13-.2-.13-.23,0,0,0,0a4.1,4.1,0,0,1,1.21.47A1.5,1.5,0,0,1,68,15Zm.94-3.57c0,.41-.23.65-.53.65s-.35-.07-.5-.48a7.84,7.84,0,0,0-.79-1.51,1.32,1.32,0,0,1-.19-.29s0,0,.08,0a2.63,2.63,0,0,1,.94.29A1.66,1.66,0,0,1,68.89,11.43Zm3.46,2.4a.41.41,0,0,0-.44.44c0,.14.11.17.34.24.71.22,1.58.67,1.58,1.55,0,.26-.09.6-.37.6s-.33-.11-.77-1.11c-.18-.4-.55-.92-.78-.92s-.12,0-.28.38a6.62,6.62,0,0,1-2.39,2.53s0,0,0,0,.44-.54.54-.65a6.89,6.89,0,0,0,1.36-2.77.24.24,0,0,0-.21-.26l-1,.06c-.06,0-.09,0-.14-.1l-.3-.35c0-.06-.06-.08-.06-.09s0,0,.06,0c.19,0,1.2.07,1.43.07a.38.38,0,0,0,.38-.29s.06-.62.06-1a.29.29,0,0,0-.28-.29c-.15,0-.94.07-1,.07s-.09,0-.14-.1l-.29-.35c-.06-.06-.07-.08-.07-.09a.06.06,0,0,1,.06,0c.2,0,1.17.09,1.4.09a.35.35,0,0,0,.32-.35,8.6,8.6,0,0,0-.08-.86c0-.11-.15-.55-.15-.66a.16.16,0,0,1,.15-.18c.26,0,1.5.09,1.5.49,0,.09-.28.38-.31.45a3.31,3.31,0,0,0-.1.9c0,.09,0,.15.13.15s.13-.06.19-.15c.23-.38.32-.41.4-.41s.83.61.83.84-.28.21-.8.21h-.46c-.15,0-.32,0-.36.23,0,0-.14,1.09-.14,1.12a.2.2,0,0,0,.2.21.49.49,0,0,0,.35-.22c.3-.4.33-.44.44-.44s.88.63.88.88-.29.21-.82.21Zm.32,8.62c-.45,0-.51.24-.51.27a.75.75,0,0,1-.79.56c-.31,0-.35-.3-.35-.58,0-.07,0-.33.06-.63s0-.55,0-1c0-.6,0-3.08,0-3.35a4.88,4.88,0,0,1-.12-.55c0-.06,0-.11.12-.11a2.71,2.71,0,0,1,1,.32,1.61,1.61,0,0,0,.7.15h3.42a.65.65,0,0,0,.53-.26c.15-.21.21-.31.35-.31s1.08.72,1.08,1a.29.29,0,0,1-.14.23l-.24.18a7.17,7.17,0,0,0-.08,1.4c0,.39.11,2.37.11,2.47,0,.35-.11.92-.76.92-.36,0-.4-.26-.41-.44a.32.32,0,0,0-.36-.29Zm-.1-4.5c-.43,0-.43.29-.43.62,0,1,0,1.13.43,1.13h3.66c.43,0,.43-.29.43-.61,0-1,0-1.14-.43-1.14Zm0,2.16c-.07,0-.44,0-.44.36a9,9,0,0,0,.09,1.4.4.4,0,0,0,.4.17h3.55c.48,0,.48-.13.48-1.46,0-.18,0-.47-.46-.47Zm1.64-6.63c-.06-.06-.06-.08-.06-.09a0,0,0,0,1,0-.05c.11,0,1,.08,1.12.08a.32.32,0,0,0,.32-.26c0-.14.08-.91.08-.94a.33.33,0,0,0-.32-.32l-.93.06s-.07,0-.13-.09l-.29-.35c-.06-.06-.06-.08-.06-.11s0,0,0,0c.23,0,1.2.08,1.4.08a.3.3,0,0,0,.29-.29c0-.26,0-.73-.06-1,0-.1-.12-.58-.12-.68s.06-.14.16-.14,1.37.18,1.37.44c0,.11-.29.46-.3.53a8.3,8.3,0,0,0-.06.84.3.3,0,0,0,.29.32,1.7,1.7,0,0,0,.62-.05c.14-.06.53-.65.67-.65a1.74,1.74,0,0,1,.89.88c0,.21-.29.21-.82.21H77.05a.38.38,0,0,0-.42.32,9.32,9.32,0,0,0-.13,1,.32.32,0,0,0,.31.3,7.19,7.19,0,0,0,1.09,0c.14-.06.55-.65.69-.65a1.81,1.81,0,0,1,.89.88c0,.23-.29.23-.82.23H77.08c-.14,0-.23.06-.23.2a4.75,4.75,0,0,0,2.42,2.2c.14.08.87.4.87.43a4,4,0,0,1-.64.18,1.75,1.75,0,0,0-.66.36s-.15.14-.18.14a5.53,5.53,0,0,1-2-2.87c-.1-.44-.1-.49-.22-.49s-.1.08-.12.12A4.3,4.3,0,0,1,74.41,17c-.26.18-.29.18-.34.18s.14-.27.17-.3A5.08,5.08,0,0,0,75.32,15c.07-.24.2-.79.2-.85a.25.25,0,0,0-.23-.26l-.64.07c-.05,0-.08,0-.14-.11Z" transform="translate(0 21.27)"/><path class="cls-4" d="M86.51,10.79c.12.52.15.65.48.68.72.08,1,.11,1,.57s-.33.62-.85.85c-.15.06-.86.27-1,.36s-.29,1.08-.29,1.25a.46.46,0,0,0,.17.36,1.6,1.6,0,0,1,.5,1.23,2.5,2.5,0,0,1-.8,1.9c-.17.12-.21.17-.21.34s.16.76.16.91a.55.55,0,0,1-.33.5c-.28.14-.34.17-.34.34,0,.76.87,1.11,2.56,1.11,2.79,0,3.1-.75,3.14-3.41,0-1.34.09-4,1.72-4,.94,0,1.9,1.79,1.9,2.66a.65.65,0,0,1-.5.71,5.1,5.1,0,0,1-.73-.38c-.15,0-1-.23-1-.32s.53-.22.62-.29a.51.51,0,0,0,.29-.53c0-.65-.39-1.35-.89-1.35-.88,0-1.07,1.34-1.07,3,0,.5.06,1.34.11,1.78,0,.22.26,1.3.26,1.56,0,1.6-3.07,1.66-3.85,1.66-3,0-3.19-1.34-3.19-1.73,0-.14.12-.75.12-.89s0-.22-.33-.57a4.26,4.26,0,0,1-.87-2.45,2,2,0,0,1,1.26-1.91c.08,0,.47-.13.57-.16s.13-.82.13-.88-.07-.21-.16-.21-.93.2-1.11.2a1.43,1.43,0,0,1-1.16-1.28s0-.21.12-.21a7.25,7.25,0,0,1,.84.2,3.7,3.7,0,0,0,.89.09c.72,0,.84,0,.84-.57a2.35,2.35,0,0,0-.24-1,3.58,3.58,0,0,1-.35-.58c0-.2.38-.17.5-.15C85.78,10.17,86.42,10.39,86.51,10.79ZM84.84,15.4c-.38,0-.84.42-.84,1.21,0,.53.27,1.11.7,1.11.18,0,.26-.2.3-.33a11.13,11.13,0,0,0,.19-1.51C85.19,15.55,85.07,15.4,84.84,15.4Zm1.46-3.46c0,.11,0,.16.1.16s.52-.14.52-.31a.31.31,0,0,0-.32-.24.35.35,0,0,0-.15,0C86.3,11.67,86.3,11.91,86.3,11.94Z" transform="translate(0 21.27)"/><path class="cls-4" d="M99.1,12.46a7.68,7.68,0,0,0,.86,0c.11,0,.49-.49.6-.49s.63.54.63.72-.07.2-.8.2H98.58c-.39,0-1.12,0-1.37,0l-.32,0c-.06,0-.09,0-.13-.09l-.29-.35s-.06-.07-.06-.1,0,0,0,0l.4,0c.35,0,1.56.07,1.75.07Zm-.6,8.85c-.27,0-.44.12-.44.33v.76a.61.61,0,0,1-.62.56c-.38,0-.38-.36-.38-.79,0-.27.06-2.06.06-2.46S97,18,97,17.93a.16.16,0,0,1,.17-.16,4.32,4.32,0,0,1,.73.33,1.12,1.12,0,0,0,.59.12h.68c.31,0,.4,0,.54-.27s.16-.23.25-.23,1,.49,1,.71,0,.14-.14.2-.17.12-.2.18v2.38c0,.25,0,.77-.64.77-.24,0-.29-.23-.33-.41s-.34-.24-.44-.24Zm.19-7c.73,0,.82,0,1-.2s.21-.24.3-.24.76.46.76.65-.09.2-.82.2H98.31c-.11,0-.6.08-.67.08s-.11-.06-.14-.11l-.29-.35-.07-.09s0,0,.06,0,.86.09,1.11.09Zm-.06-3.72c.66,0,.74,0,.88-.2s.24-.33.35-.33a2.15,2.15,0,0,1,1,.77c0,.15-.09.15-.82.15H98.26c-.06,0-.53.08-.61.08s-.09,0-.13-.09l-.29-.35s-.08-.08-.08-.11,0,0,.06,0,.91.11,1.07.11Zm-.31,6.17c-.1,0-.59.07-.67.07s-.09,0-.13-.1l-.29-.35c0-.05-.08-.08-.08-.09a.06.06,0,0,1,.06-.05c.11,0,.94.11,1.11.11.81,0,.9,0,1.07-.26s.22-.29.33-.29.84.52.84.76-.08.2-.81.2Zm.2,1.87c-.5,0-.5.1-.5,1.08s0,1.2.5,1.2h.7c.45,0,.5,0,.5-1.45,0-.67,0-.83-.49-.83Zm2-2.63a.41.41,0,0,1-.06-.11s0,0,0,0,1,.08,1.22.08a.55.55,0,0,0,.5-.23c.24-.24.27-.27.35-.27a1.74,1.74,0,0,1,.85.8c0,.11,0,.12-.26.24s-.14.14-.17.29v2.68c0,1.64.32,2.28,3.61,2.28a12.56,12.56,0,0,0,3.35-.43c.08,0,.54-.18.58-.18a.06.06,0,0,1,.06.06s-.13.12-.21.18a2.6,2.6,0,0,0-1,1.11c-.16.35-.17.38-.44.38-3.59,0-4.7-.1-5.89-1.75-.22-.31-.25-.35-.38-.35s-.18,0-.31.26-1.08,1.66-1.11,1.78-.1.33-.25.33-.7-.92-.7-1,0-.1.38-.23a4.61,4.61,0,0,0,1.39-1.13c.06-.11.06-2.24.06-2.47,0-1.82,0-1.94-.49-1.94l-.73.06s-.07,0-.14-.09Zm2.28-2.77c-.38,0-.45-.23-.67-1a5.14,5.14,0,0,0-1-1.91s-.12-.12-.12-.14,0,0,.06,0a3.24,3.24,0,0,1,2.26,2.15C103.46,12.78,103.19,13.22,102.81,13.22Zm4.4,1.92c-.15,0-.32.06-.32.24a6.54,6.54,0,0,0,3.2,3.28c.06,0,.22.11.22.14s0,.06-.15.06a.91.91,0,0,0-.86.53c-.14.26-.17.31-.25.31-.32,0-1.06-1.13-1.49-1.92-.1-.2-.61-1.25-.64-1.25s-.06.08-.06.11c0,.44,0,1.49,0,1.92,0,.24.12,1.36.12,1.52,0,.45-.52.63-.76.63s-.29-.27-.29-.63,0-2,0-2.42c0-.11,0-.64-.08-.64s-.07,0-.29.3a10.56,10.56,0,0,1-2.31,2.38.07.07,0,0,1,0-.05s.48-.67.56-.78a11.51,11.51,0,0,0,1.82-3.52c0-.2-.19-.2-.29-.2-.31,0-.74,0-1,0l-.32,0c-.06,0-.09,0-.14-.09l-.3-.35c0-.07-.07-.07-.07-.11s0,0,.07,0c.27,0,1.67.1,2,.1s.42-.31.42-.46c0-.71,0-3.18-.13-3.66a6.36,6.36,0,0,1-.17-.66c0-.09.06-.16.2-.16s1.29.19,1.29.47a.31.31,0,0,1-.09.18,1.62,1.62,0,0,0-.25.29v.88c0,.29,0,1.72,0,2.05,0,1,0,1.08.47,1.08.76,0,.85,0,1-.27s.29-.46.42-.46,1,.65,1,.91-.29.22-.81.22Zm-3-3.86s1.4.77,1.4,1.64c0,.32-.25.74-.6.74s-.22-.06-.33-.61a7.38,7.38,0,0,0-.41-1.38c0-.09-.11-.3-.12-.35S104.14,11.28,104.16,11.28ZM107.24,14c0-.05.11-.2.12-.23a11.61,11.61,0,0,0,.84-2.48c0-.35.06-.47.23-.47s1.2.49,1.2.81c0,.07,0,.09-.26.18S107.62,14,107.32,14C107.3,14,107.24,14,107.24,14Z" transform="translate(0 21.27)"/><path class="cls-4" d="M113.84,17.46c0-.45.43-.94,1.46-2.14a6.79,6.79,0,0,0,1.29-2.27c0-.09-.1-.1-.16-.1s-.78.12-.91.12a1.62,1.62,0,0,1-1.36-1.34s0-.1.09-.1a3.43,3.43,0,0,1,.58.28,2.26,2.26,0,0,0,1,.28c1.25,0,1.25-.41,1.25-.72a1.16,1.16,0,0,0-.12-.53c0-.07-.37-.35-.37-.44s.4-.24.67-.24.75.13.78.47.07.23.68.27c.11,0,.69.08.69.4,0,.5-1.11.92-1.81,1.2-.23.09-.25.12-.58.89a12.08,12.08,0,0,1-.82,1.65c-.08.13-.11.18-.11.24a.06.06,0,0,0,.06.06,3.19,3.19,0,0,0,.48-.17,1.47,1.47,0,0,1,.59-.12,1.37,1.37,0,0,1,1.29.93c.11.26.12.29.15.29a6.22,6.22,0,0,0,.62-.82c.51-.7,1.49-2.09,2.82-2.09a1.44,1.44,0,0,1,1.43,1.36c0,.71-1.21,1.21-2.15,1.62-.38.17-2.1.85-2.37,1s-.26.32-.26.64c0,.14,0,.77,0,.91s0,1.11-.56,1.11c-.41,0-.47-.5-.47-.77s0-.89,0-.9,0-.18-.11-.18-1.47.94-1.47,1.81c0,1,1.51,1,2,1a4.78,4.78,0,0,0,1-.09c.21,0,1.18-.27,1.38-.27s.75.15.75.52c0,.94-2.36,1-2.72,1-1.93,0-3-.79-3-2,0-1,.57-1.46,2-2.62a.65.65,0,0,0,.23-.53c0-.68-.12-1.53-.73-1.53a2.62,2.62,0,0,0-1.87,1.61c-.17.38-.33.74-.82.74C114.13,18,113.84,17.87,113.84,17.46Zm3.88-5.74s.76-.2.76-.37-.38-.23-.52-.23-.27.43-.27.49S117.69,11.72,117.72,11.72Zm1.38,4.92s0,.08.06.08,3-1.22,3-2.22a.47.47,0,0,0-.53-.46C120.41,14,119.1,16.4,119.1,16.64Z" transform="translate(0 21.27)"/><path class="cls-4" d="M27.94,27.39a.61.61,0,0,0,.61-.25c.2-.25.29-.35.38-.35s1,.28,1,.57-.1.2-.36.32a5.32,5.32,0,0,0-1.49,1.8c0,.1.05.1.41.1a.51.51,0,0,0,.47-.19c.29-.35.35-.41.47-.41a1.32,1.32,0,0,1,.76.82c0,.09-.3.45-.33.54,0,.25-.06,1.8-.06,2.16,0,.93.09,5,.09,5.82a1,1,0,0,1-.87.9c-.2,0-.24-.08-.44-.32a2.7,2.7,0,0,0-.86-.61c-.05,0-.17,0-.17-.14s.09-.09.41-.09c.86,0,.88,0,.94-.21s.08-1.69.08-2.11c0-.85,0-1-.49-1H26.36c-.42,0-.41,0-.53.88a5.87,5.87,0,0,1-1.41,3.45c-.12.16-.19.22-.28.22s-.06,0-.06,0a3.49,3.49,0,0,1,.15-.34,15.72,15.72,0,0,0,.86-5.31c0-1.24-.05-2.31-.11-3.56,0-.08,0-.17-.11-.17s-.74.81-.94.81-.08,0-.08-.08a10,10,0,0,1,.66-1,17,17,0,0,0,1.69-3.72c0-.23.07-.35.13-.35s1.22.38,1.22.64c0,.1-.35.44-.4.51a1.62,1.62,0,0,0-.29.55c0,.15.14.15.34.15Zm-1,.4a.81.81,0,0,0-.81.42,10,10,0,0,0-.62.95.72.72,0,0,0,.73.42h.87c.36,0,.42-.07.54-.33a9.48,9.48,0,0,0,.57-1.31c0-.15-.14-.15-.23-.15Zm-.26,6.57c.4,0,.4-.1.4-1s0-1.07-.38-1.07h-.29a.34.34,0,0,0-.38.25c0,.1-.05,1.17-.05,1.33s0,.48.4.48Zm0-2.45c.39,0,.39-.2.39-.58a4.69,4.69,0,0,0,0-1.17C27,30,26.83,30,26.68,30h-.26C26,30,26,30.1,26,31.15c0,.62,0,.76.39.76Zm1.88,0c.11,0,.3,0,.37-.17a7.6,7.6,0,0,0,0-1c0-.76-.05-.76-.64-.76-.41,0-.41.17-.41.67,0,1,0,1.08.1,1.18a.44.44,0,0,0,.31.08Zm-.65.86c0,.2,0,1.33,0,1.43s.22.16.61.16.43-.13.43-.73c0-1.28,0-1.33-.43-1.33S27.93,32.32,27.93,32.77Zm3.93,1.11a.59.59,0,0,0-.57.29c-.23.31-.78,1-1,1-.05,0-.06,0-.06-.07s.64-1.42.76-1.7a4,4,0,0,0,.5-1.93c0-.09,0-.1.07-.1s1.24.48,1.24.68-.41.41-.48.5a4,4,0,0,0-.47.81c0,.12.13.12.19.12h.83c.44,0,.49-.18.49-.53,0-.11,0-.78-.06-1a3.26,3.26,0,0,1-.15-.44c0-.09.09-.09.16-.09.26,0,1.36.19,1.36.45,0,.08-.26.31-.28.38a3.51,3.51,0,0,0-.06.7c0,.43,0,.55.3.55s.52,0,.69-.26.29-.38.45-.38a2.12,2.12,0,0,1,1,.87c0,.16-.09.16-.82.16H34.83a.49.49,0,0,0-.44.17c-.06.12-.06.23-.06,1.13,0,.28,0,.56.45.56.78,0,.87,0,1.08-.26.4-.47.44-.52.59-.52s1,.81,1,1-.08.19-.81.19H34.8c-.47,0-.47.23-.47.69,0,.25.06,1.41.06,1.55a.85.85,0,0,1-.81.94c-.3,0-.32-.18-.32-.44s.08-1.9.08-2.27c0-.21,0-.47-.44-.47-.69,0-1.17,0-1.78,0l-.64.06s-.08,0-.14-.11l-.28-.35s-.07-.07-.07-.09,0,0,.05,0l.67.06,2.08.06c.58,0,.58-.14.58-.7,0-1,0-1.16-.44-1.16Zm-1.39-7.43c-.07-.06-.08-.07-.08-.09s0,0,.06,0,.58,0,.68.06c.58,0,1.28,0,1.86,0h2.48a.49.49,0,0,0,.45-.17c.2-.22.23-.24.32-.24s1.06.29,1.06.64c0,.11-.33.47-.35.56a20.34,20.34,0,0,1-.27,2.56A1.88,1.88,0,0,1,35.24,31c-.12,0-.14,0-.49-.49a2,2,0,0,0-.68-.5s-.2-.09-.2-.12.06-.06.09-.06l.93,0c.56,0,1,0,1-2.59,0-.23,0-.47-.47-.47H34.34c-.39,0-.41.06-.58.73a4.7,4.7,0,0,1-2.22,3.07,4.34,4.34,0,0,1-.94.44c-.06,0-.07,0-.07-.06s.63-.56.74-.68a5.21,5.21,0,0,0,1.46-3.24c0-.26-.18-.26-.29-.26a11.92,11.92,0,0,0-1.34.05l-.21,0c-.06,0-.09-.05-.14-.11Z" transform="translate(0 21.27)"/><path class="cls-4" d="M44.8,26.8a3.26,3.26,0,0,0,.79,1.57,1.35,1.35,0,0,0,.59-.25c.31-.18.35-.21.54-.21a.47.47,0,0,1,.51.46.85.85,0,0,1-.65.74s-.36.14-.36.18a6.12,6.12,0,0,0,.92,1.28c.06,0,.55-.17.55-.42,0-.07-.2-.28-.2-.34s.15-.14.21-.15l.95-.08c.5,0,.89.25.89.67,0,.21,0,.56-1.33,1-.4.14-.44.17-.44.23s0,.11.48.85a4.54,4.54,0,0,1,1,2.39,1,1,0,0,1-.88,1c-.38,0-.48-.08-1.47-.76a2.46,2.46,0,0,0-1.48-.46,1.78,1.78,0,0,0-2,1.57c0,1.12,1.34,1.2,1.73,1.2s1.26-.11,1.48-.11.71.06.71.55c0,.87-1.6.87-1.78.87-.44,0-3,0-3-2.13,0-.88.65-2.39,3-2.39a6.4,6.4,0,0,1,1.46.18,2.52,2.52,0,0,0,.66.1c.23,0,.4-.08.4-.32a5.32,5.32,0,0,0-.69-1.87c-.22-.44-.24-.49-.37-.49s-.67.17-.8.2a7.26,7.26,0,0,1-1.82.23,2.72,2.72,0,0,1-2-.58,1.18,1.18,0,0,1-.36-.65.15.15,0,0,1,.14-.16,4,4,0,0,1,.48.28,4,4,0,0,0,1.6.3,5,5,0,0,0,2.35-.49c0-.09-.85-1.42-1-1.42s-.83.13-1,.13a2.27,2.27,0,0,1-2.08-1.11.12.12,0,0,1,.12-.12,2.7,2.7,0,0,1,.4.14,2.7,2.7,0,0,0,1,.21c.36,0,.89-.07.89-.18a5.1,5.1,0,0,0-1.55-1.61c-.44-.22-.5-.23-.5-.34s.29-.41.59-.41S44.67,26.35,44.8,26.8Z" transform="translate(0 21.27)"/><path class="cls-4" d="M57.92,26.68c.34,0,.43-.05.55-.15.32-.32.35-.35.44-.35s1.11.61,1.11.89c0,.08,0,.1-.18.23s-.25.2-.25,1.74c0,.65.1,3.87.1,4.6a1.7,1.7,0,0,1-.11.68,1,1,0,0,1-.75.49c-.27,0-.28-.14-.33-.45S58.3,34,58,34H56.57c-.2,0-.35,0-.43.19a8.87,8.87,0,0,0,0,1c0,.44-.52.76-.9.76s-.24-.12-.24-.23,0-.35,0-.42c.08-1.8.12-5.94.12-6.29A23.22,23.22,0,0,0,55,26.71a3.87,3.87,0,0,1-.06-.46c0-.07,0-.15.09-.15l1.08.47a.94.94,0,0,0,.53.11Zm.22,3.48c.13,0,.45,0,.45-.41s0-2.33,0-2.45-.34-.23-.45-.23H56.6c-.17,0-.43,0-.49.32,0,.16,0,2,0,2.33s0,.44.45.44Zm0,3.45c.44,0,.44-.24.44-.58V31c0-.38-.23-.43-.44-.43H56.54c-.44,0-.44.14-.44,1v1.61a.38.38,0,0,0,.44.43Zm4.51-.3c-.33,0-.35.09-.44.79A5.88,5.88,0,0,1,60,38.43a3.14,3.14,0,0,1-1,.64s-.1,0-.1-.06.64-.73.76-.89c1.55-1.94,1.77-3.75,1.77-7.35a36.6,36.6,0,0,0-.15-3.85c0-.1-.13-.57-.13-.68a.06.06,0,0,1,.06,0s.86.26,1.3.4a2.77,2.77,0,0,0,.45.06h2.13c.26,0,.4,0,.55-.18s.33-.4.42-.4,1.26.76,1.26,1,0,.17-.39.44a.47.47,0,0,0-.17.26,17,17,0,0,0-.06,1.79c0,.43,0,6.6.09,7.36,0,.33,0,.55,0,.62a1.63,1.63,0,0,1-1.32,1.72c-.09,0-.09-.05-.12-.23a1.23,1.23,0,0,0-.72-.74c-.24-.11-.47-.2-.47-.25s1.33,0,1.45-.21a1.46,1.46,0,0,0,.12-.73c0-.53,0-2.92,0-3.4,0-.08,0-.41-.44-.41ZM62.85,30c-.46,0-.46.26-.46.52s0,1.67,0,2,.31.42.52.42h2.37c.2,0,.38,0,.44-.29v-2.2c0-.43-.3-.43-.45-.43Zm0-2.93c-.38,0-.45.2-.45.44v1.6c0,.3,0,.5.48.5h2.33c.33,0,.48-.09.48-.46V27.56c0-.2,0-.5-.44-.5Z" transform="translate(0 21.27)"/><path class="cls-4" d="M70.6,30.56a.13.13,0,0,1,.14-.13s.83.22,1,.22a24.64,24.64,0,0,0,2.56-.46c.25-.18.27-1.72.27-1.79a1.91,1.91,0,0,0-.38-1.29c-.23-.28-.26-.31-.26-.35s.18-.13.24-.13c1,0,1.61.58,1.61,1,0,0-.57,2-.57,2.25,0,.09.06.13.16.13l.9-.07a1.79,1.79,0,0,1,2,1.94c0,1.2-.42,3.82-1.3,4.88a2.39,2.39,0,0,1-1.55.93c-.58,0-.73-.56-.9-1.05,0-.08-.2-.47-.2-.5a.07.07,0,0,1,.08-.08,2.38,2.38,0,0,1,.38.11,4.63,4.63,0,0,0,.77.1c.44,0,1-.21,1.45-1.85a12.57,12.57,0,0,0,.47-2.64c0-1.07-.61-1.14-1-1.14A3.27,3.27,0,0,0,75,31a2.12,2.12,0,0,0-.23.65c-.61,2.07-2.08,5.81-3.31,5.81A.45.45,0,0,1,71,37c0-.32.11-.44,1-1.44a8.88,8.88,0,0,0,1.87-3.44,4,4,0,0,0,.21-.71s0-.12-.1-.12c-.34,0-1.75.61-2.06.61C71.3,31.85,70.6,30.89,70.6,30.56Zm10.61,3.16c-.15,0-.85-.41-1-.46s-.49-.06-.49-.11.5-.35.59-.42c.57-.43.63-.47.63-.88a2,2,0,0,0-1.23-1.75c-.13-.06-.37-.17-.37-.23s.06-.09.11-.09a2.79,2.79,0,0,1,2.66,2.69C82.08,32.65,81.85,33.72,81.21,33.72Z" transform="translate(0 21.27)"/><path class="cls-4" d="M94.21,28.87c-.11,1-.12,1.12-.12,1.21s.12.08.16.08.6-.06.72-.06c.33,0,.47-.05.47-.21s0-.12-.3-.38a.13.13,0,0,1-.06-.09c0-.06.09-.06.12-.06a7.48,7.48,0,0,1,1.09.27c1,.27,1.19.52,1.19.82s-.44.5-.75.5-1.62-.17-1.9-.17c-.88,0-.89,0-1,.82-.28,2.25-1.1,3-1.65,3s-.58-.17-.72-.61a3.75,3.75,0,0,0-.29-.67A1.5,1.5,0,0,1,91,33s0,0,.07,0,.85.28,1,.28a.56.56,0,0,0,.52-.4A6.71,6.71,0,0,0,93,31.15c0-.12,0-.2-.23-.2s-3.07.61-3.27.94a1.26,1.26,0,0,0-.13.63c0,.5,0,1.88,0,1.93,0,1.42.27,2.14,2.4,2.14a7.37,7.37,0,0,0,1.34-.12,4.23,4.23,0,0,1,.73-.11.8.8,0,0,1,.82.65c0,.72-1.38.72-1.73.72-4.35,0-4.35-1.22-4.35-4.1,0-1.28,0-1.43-.27-1.43s-1.31.47-1.54.47-1.56-.29-1.56-1.13c0-.19.06-.21.19-.21s.79.06.93.06a7.23,7.23,0,0,0,1.93-.21c.24-.08.26-.21.26-.78a3.78,3.78,0,0,0-.24-1.59c0-.12-.35-.66-.35-.72s.26-.21.44-.21c.36,0,1.3.43,1.3,1a3.77,3.77,0,0,1-.07.47,7.86,7.86,0,0,0-.08,1.17c0,.32,0,.44.2.44s2-.43,2.42-.49c.94-.15,1.05-.16,1.11-.48s.07-1,.07-1.23a2.2,2.2,0,0,0-.18-1,5.93,5.93,0,0,1-.29-.56c0-.16.26-.17.34-.17A1.23,1.23,0,0,1,94.44,28S94.22,28.73,94.21,28.87Z" transform="translate(0 21.27)"/><path class="cls-4" d="M99.88,37.26a.82.82,0,1,1,1.58.42.82.82,0,0,1-1,.58A.8.8,0,0,1,99.88,37.26ZM104,28c-.1.34-.64,1.5-.79,1.88a51.48,51.48,0,0,0-1.74,5.53c-.1.39-.17.6-.42.53s-.21-.27-.11-.64a50.07,50.07,0,0,0,1.26-5.7c0-.3.2-1.74.27-2a.81.81,0,0,1,1-.57A.82.82,0,0,1,104,28Z" transform="translate(0 21.27)"/><g class="cls-5"><rect class="cls-4" x="60.93" y="15.72" width="221.56" height="29.84" transform="translate(-0.13 81.84) rotate(-20)"/><path class="cls-6" d="M141.57,30.69c.11,0,.23,0,.26,0s0,.14-.15.23l1,2.68c.65,1.78,1.14,3.4.5,5a4,4,0,0,0-1.18-.21c.54-1.51.25-2.62-.46-4.57l-1-2.88Zm2.69-.48c.07,0,.21-.05.25.06s0,.12-.14.22l2.2,6.05-1.1.4-2.33-6.4Zm2.32-1.41c.07,0,.19-.05.23.06s0,.08,0,.12a1.06,1.06,0,0,1-.09.11l2.67,7.33-1.07.39-2.8-7.68Z" transform="translate(0 21.27)"/><path class="cls-6" d="M158.06,28l.3.83-.58.21,1,2.75c.15.43.33,1.12-1.08,1.57a2.8,2.8,0,0,0-.85-.94,3.29,3.29,0,0,0,.74-.17c.2-.07.2-.11.12-.34l-.92-2.52-3,1.1-.3-.83.36-.14a1.88,1.88,0,0,0-.72-.32l1.45,4-.75.27-.23-.64-1.35.5.37,1-.75.27-2.07-5.7.86-.25c.07,0,.13,0,.16,0s0,.13-.17.24l1.25,3.43.33-.12-1.82-5,.78-.25s.12,0,.14,0,0,.15-.12.22L152.94,32l.32-.11-1.39-3.83.82-.25c.05,0,.14,0,.17,0s-.07.17-.14.22l.38,1a2.44,2.44,0,0,0,1-1.34l-1,.38-.3-.82,1.35-.49a4.4,4.4,0,0,0-.26-.85l1-.31c.07,0,.14,0,.16,0s-.07.16-.12.2.07.23.16.57l1.87-.68.29.82-1.33.49a3.55,3.55,0,0,0,1.84.38,2.12,2.12,0,0,0-.39.76Zm-1.55,2,.81,2.22-1.5.55.23.63-.9.32-1-2.85Zm.45-1.58a4.4,4.4,0,0,1-1.84-.7,3.68,3.68,0,0,1-.81,1.66Zm-1.66,2.92.22.61.64-.23-.23-.61Z" transform="translate(0 21.27)"/><path class="cls-6" d="M163,24.42a5.82,5.82,0,0,0-1.29-.94l.75-.75a6.87,6.87,0,0,1,1.3.93l-.65.71,1.26-.45a9.86,9.86,0,0,0,.45-1.84l1.12,0c.06,0,.16,0,.19.08s-.1.17-.24.24c-.13.57-.23.92-.29,1.11l1.46-.53.78,2.15-1,.36-.48-1.33-5.42,2,.49,1.33-1,.36-.78-2.14,1.28-.47a6.58,6.58,0,0,0-1.09-.77l.69-.75a5.28,5.28,0,0,1,1.26.87,4.31,4.31,0,0,0-.44.5Zm5.36,1.83.32.87-3.23,1.17.42,1.15c.32.89-.29,1.15-1.67,1.64a4.12,4.12,0,0,0-.69-.89l.93-.3c.37-.13.35-.19.19-.62l-.22-.6-3.31,1.21-.32-.87,3.31-1.21-.22-.62.46-.1c.2-.31.44-.69.54-.86l-3,1.08-.31-.85,4.21-1.53.53.49a14.85,14.85,0,0,1-1.17,2Z" transform="translate(0 21.27)"/><path class="cls-6" d="M172.62,27.58l.1.28-1,.37L169,20.79l7.2-2.62,2.71,7.44-1,.36-.1-.28Zm0-6.78-.15-.39-2.16.79,2,5.55,5.19-1.89-2-5.55-1.94.7c0,.09,0,.14-.18.24l.09.24,1.63-.6.21.61-1.62.59.12.32,2-.72.23.63-4.78,1.74-.23-.63,2-.71-.12-.32-1.65.6-.21-.6Zm4,2.56c.06,0,.1,0,.11.07s-.06.11-.09.13l-.14,0c-.1.21-.19.4-.3.59a3.44,3.44,0,0,0,.78,0,2.1,2.1,0,0,0-.25.85,5.73,5.73,0,0,1-1.75-.26l.28.76-.85.3-.37-1a6,6,0,0,1-1.19,1.51,1.66,1.66,0,0,0-.85-.42,6.13,6.13,0,0,0,1.52-1.55l-1.11.4-.58-1.61,3.69-1.34.54,1.46Zm-3.63,0,.15.42,1.84-.66-.16-.43Zm1.75.52a5.12,5.12,0,0,0,.7.23c.12-.24.19-.39.27-.58Z" transform="translate(0 21.27)"/><path class="cls-6" d="M183.73,15.06l.48,1.31c.34.94-.46,1.32-.91,1.51l-.16-.46c.51-.24.53-.47.42-.79l-.63.23-.48-1.33Zm1.79-.65.48,1.31c.34.94-.46,1.32-.91,1.51l-.17-.46c.52-.24.53-.47.43-.79l-.63.23-.49-1.33Z" transform="translate(0 21.27)"/><path class="cls-6" d="M188.58,13.47a7.93,7.93,0,0,1,1.88.72,8.71,8.71,0,0,0-.47,1.05,8.94,8.94,0,0,0-1.88-.78ZM194,15l-.22-.59.59-.21a5.87,5.87,0,0,0-.61-.77l.48-.33-.72.26-.31-.84.87-.32-.28-.77,1-.35a.13.13,0,0,1,.17.07c0,.08,0,.16-.07.21l.18.49.82-.3.3.85-.52.19.35-.05c.05,0,.18,0,.2.06s-.09.17-.16.21c0,.38,0,.5,0,.78l.59-.21.32.86-.92.33.24.68.82-.3.33.91-.82.3.5,1.36-1,.35-.49-1.37-.8.3-.33-.91.8-.29-.25-.68-1,.36,1,2.77-1.29.47.09.24-.78.28-.53-1.46a4.47,4.47,0,0,1,0,1.21,2.62,2.62,0,0,0-.9-.25.91.91,0,0,0,.72.73,4.51,4.51,0,0,0,2.39-.53,23.13,23.13,0,0,0,3.48-1.44,3.54,3.54,0,0,0,.09,1.12l-4.1,1.49a3.08,3.08,0,0,1-2.57,0c-.09.16-.47.83-.54,1s.11.2,0,.26a.17.17,0,0,1-.15,0l-.89-.75a6.55,6.55,0,0,0,.74-1l-.69-1.9-.78.29-.34-.92,1.81-.66.78,2.14a7.68,7.68,0,0,0-.46-2.77l-.91-2.5,2.61-1,.87,2.41-1.68.62c0,.14.07.21.17.55Zm-2.52-1.45.27.74.82-.3-.27-.74ZM193,16.27l.5,1.36.51-.19-.5-1.36ZM194.42,13a7.57,7.57,0,0,1,.62.81l-.34.24.59-.21c0-.24,0-.73-.06-1.13Z" transform="translate(0 21.27)"/><path class="cls-6" d="M205.52,7.91l.69,1.9-.8.29a8.29,8.29,0,0,1,1.4.84,5.26,5.26,0,0,0-.59.84,9,9,0,0,0-1.66-1l.51-.83.05,0-.31-.86-3,1.1a8,8,0,0,1,1.11.3,5.29,5.29,0,0,0-.33.9,7.68,7.68,0,0,0-1.5-.42l.26-.61-2,.74.4,1.09-1,.38L198,10.66l3.23-1.18-.27-.71,1.16-.4a.15.15,0,0,1,.2.07c0,.06,0,.14-.11.21l.16.42Zm-1,1.93a.18.18,0,0,1,.15.11c0,.06-.05.13-.21.15a9.22,9.22,0,0,1-1.34,2.48l.74-.27c.51-.19.49-.39.29-1.08a1.39,1.39,0,0,0,1.06.11c.15.57.21,1.33-.63,1.64l-2,.72a1.17,1.17,0,0,1-.67.05,8.4,8.4,0,0,1-1.85,1.36,3,3,0,0,0-.95-.65,9.42,9.42,0,0,0,2.22-1.4l-.43-1.19a.45.45,0,0,1-.12.06,6.47,6.47,0,0,1-.75,1.87,1.5,1.5,0,0,0-1-.28,4.54,4.54,0,0,0,.78-1.9l1,.1-.07-.18.92-.29c.1,0,.25-.05.28,0s-.07.14-.12.17l.29.81a7,7,0,0,0,1.37-2.61Zm-1.14,5.54-.58-1.58,1-.34c.11,0,.19,0,.21.06s0,.14-.11.23l.46,1.26,1.7-.62L205.62,13l1-.31c.11,0,.23-.06.27,0s0,.16-.09.21l.81,2.21-1.07.39-.12-.34L202,16.86l.12.33-1,.38-.86-2.38,1-.33c.07,0,.19,0,.22.05s0,.14-.1.21l.32.88Z" transform="translate(0 21.27)"/><path class="cls-6" d="M208.76,6.53l.73,2.61-.66.24-1.12-2.47Zm1.68-.62.73,2.61-.67.25L209.38,6.3Z" transform="translate(0 21.27)"/><path class="cls-6" d="M218.72,9.69A3,3,0,0,0,220.22,6a2.29,2.29,0,0,0-3-1.42c.86,3.26.47,6-.4,6.29-.65.24-2.18-.41-2.73-1.93a4.33,4.33,0,0,1,2.63-5.35,3.46,3.46,0,0,1,4.6,2,4,4,0,0,1-.07,2.93,5,5,0,0,1-1.46,1.89A6.31,6.31,0,0,0,218.72,9.69Zm-3.55-1.2c.26.72.85,1.15,1.11,1.06s.28-.76.29-1.14a8.48,8.48,0,0,0-.44-3.17A3.15,3.15,0,0,0,215.17,8.49Z" transform="translate(0 21.27)"/><path class="cls-6" d="M158.83,37.29l.28.76-2.19.8-.28-.77Zm.72,1.09.27.74-2.73,1-.27-.74Zm.14,1.25.28.78-2.19.79-.28-.77Zm.43,1.19.28.76-2.2.79-.27-.75Zm2.32,1a1,1,0,0,0,.58.71,1.85,1.85,0,0,0,1.56-.08,16.82,16.82,0,0,0,2-.84,2.45,2.45,0,0,0,0,1.14l-1.27.46c-1.63.59-2.23.47-2.72.09a10,10,0,0,1-.47.92c0,.07.1.23,0,.26s-.09,0-.33-.17l-.43-.35.23.61-.83.3-.1-.25-.73.27.12.35-.84.3-1-2.76,2.42-.87.62,1.72a4.24,4.24,0,0,0,.59-.81l-.79-2.16-.66.24-.32-.9,1.5-.54.78,2.13a5.73,5.73,0,0,0,.61-2.38l-1.14.41-.32-.86,1.23-.44-.88-2.42.83-.27c.16-.05.28-.09.32,0s-.11.19-.16.22l.57,1.58a7.24,7.24,0,0,0,0-1.74h.76c.07,0,.22,0,.25.1s-.1.16-.16.17a8.37,8.37,0,0,1,0,1.5l-.81,0,.19.52,1.21-.44.31.86-1.21.45,0,.05a7.39,7.39,0,0,0,2.12,1.33,3,3,0,0,0-.44.9,8.12,8.12,0,0,1-1.2-.92l.64,1.77-.88.33-.63-1.73a7.15,7.15,0,0,1-.3,1.39,5,5,0,0,0-.9-.36Zm-2.8-4.67a12.77,12.77,0,0,1,1.65,1,4.72,4.72,0,0,0-.5.82,7.78,7.78,0,0,0-1.61-1Zm.75,6.67-.3-.83-.74.26.31.83Zm1-7.39a12.33,12.33,0,0,1,1.14,1.39,5.86,5.86,0,0,0-.66.54A11.74,11.74,0,0,0,160.68,37Z" transform="translate(0 21.27)"/><path class="cls-6" d="M170.48,35l.13.36a2,2,0,0,0,.56-1.75l-.82.3-.28-.78,3.64-1.33.27.78c.58,1.64.27,2.16-.95,2.59a2,2,0,0,0-.73-.84,4.41,4.41,0,0,0,.67-.16c.25-.09.44-.16.05-1.23l-.89.32a3.87,3.87,0,0,1-.6,2.68,1.9,1.9,0,0,0-.87-.44l1.57,4.3c.34,1-.44,1.25-1,1.46a2.89,2.89,0,0,0-.66-.84l.57-.16c.23-.09.24-.2.15-.46l-.32-.86-1.7.62a5.49,5.49,0,0,1,.13,2.38,3.41,3.41,0,0,0-1-.19,5.6,5.6,0,0,0-.4-3.18l-.63-1.73a2.15,2.15,0,0,0-.85-.08,6.89,6.89,0,0,0,.58-2.89l.94-.12c.09,0,.17,0,.19.07s0,.13-.12.2,0,.12,0,.2l1.26-.45.43.14a11.2,11.2,0,0,1-.24,1.42Zm-1.95.71a4.42,4.42,0,0,0,.12-.79l-.64.24a7.1,7.1,0,0,1-.17.8Zm-.22,1,.24.65.47-.17-.24-.65Zm.74,2,.47-.17-.24-.65-.46.17Zm.44-2.46.24.65.48-.17-.24-.65Zm1,1.2-.48.18.24.65.48-.17Zm2.41-1.44-.27-.74.9-.24c.15,0,.24,0,.27,0s0,.12-.12.21l.14.4,1.15-.42.29.81-1.14.42.27.75,1.33-.48.3.81-1.33.49.6,1.64-.93.33-.59-1.64-1.47.53-.29-.81,1.46-.53-.27-.76-.7.26a3.79,3.79,0,0,1-.12.66,2.13,2.13,0,0,0-.87-.11,4.36,4.36,0,0,0,.17-1.88l.78-.1c.1,0,.17,0,.2.06s0,.11-.13.19a2.12,2.12,0,0,1,0,.24Z" transform="translate(0 21.27)"/><path class="cls-6" d="M179.31,29.55a8.94,8.94,0,0,0,.55.93,6.88,6.88,0,0,0,1.32-1.23c.35.37.45.47.73.75a7.47,7.47,0,0,1-1.4,1.3l.44.46a8.06,8.06,0,0,0,1.54-1.61l.9.72a8.43,8.43,0,0,1-1.61,1.65,8.67,8.67,0,0,0,2,1.26l-.41,1a4.94,4.94,0,0,0-2.81.15c-.38.14-1.19.58-1,1.17.16.42.73.65,2,.2a7,7,0,0,0,2-1.12,3.48,3.48,0,0,0,.2.82,2.68,2.68,0,0,0,.14.29,8.68,8.68,0,0,1-2,1c-2.16.79-3.17,0-3.45-.78-.37-1,.4-1.94,1.58-2.37a8,8,0,0,1,1.45-.35,4.89,4.89,0,0,1-.71-.56A17.89,17.89,0,0,1,178,34.59c-.07,0-.3.11-.55.18l-.51-1c.19-.06.51-.15.9-.29a12.41,12.41,0,0,0,2.14-1l-.45-.47a17.25,17.25,0,0,1-2.11,1l-.61-.93a11,11,0,0,0,2-.92c-.36-.43-.53-.65-.73-.91Z" transform="translate(0 21.27)"/><path class="cls-6" d="M186,28.1a9.53,9.53,0,0,1,1.7,1.64l-.87.87a10.48,10.48,0,0,0-1.73-1.67Zm2-1.31a9,9,0,0,1,1.62,1.74c-.38.32-.43.36-.88.79a9.27,9.27,0,0,0-1.62-1.74Zm4.19-.82c.13,0,.16,0,.18.07s-.06.18-.11.2a9,9,0,0,1-.81,5.48,8.92,8.92,0,0,1-2.1,2.65,3.87,3.87,0,0,0-1.13-.66A7.29,7.29,0,0,0,190.84,26Z" transform="translate(0 21.27)"/><path class="cls-6" d="M200.93,22.45a1.11,1.11,0,0,0,.45-.25l1.06.45a4,4,0,0,0-.15.53,16.18,16.18,0,0,1-1.38,3.63,4,4,0,0,0-1.12-.49,8.6,8.6,0,0,0,1.12-2.62l-5.83,2.12-.4-1.09Zm-1.63,2.36c.06,0,.14,0,.17,0s-.05.18-.08.21a8.81,8.81,0,0,1,.48,2.65A5.53,5.53,0,0,1,198.61,31a6.22,6.22,0,0,0-1.27-.39c1-1.17,1.92-2.59.71-5.43Z" transform="translate(0 21.27)"/><path class="cls-6" d="M212.53,21.16l.44,1.2L205.67,25l-.44-1.2Z" transform="translate(0 21.27)"/></g><rect class="cls-7" x="198.09" y="56.65" width="56.2" height="10.64"/><path class="cls-8" d="M203.5,40.49a3,3,0,0,1,4.91-2.09,2.77,2.77,0,0,1,.74,2.05,3.41,3.41,0,0,1-.32,1.56,2.3,2.3,0,0,1-.93,1,3.05,3.05,0,0,1-1.52.34,3.55,3.55,0,0,1-1.52-.29,2.36,2.36,0,0,1-1-.93A3.07,3.07,0,0,1,203.5,40.49Zm1.69,0a1.84,1.84,0,0,0,.3,1.18,1.06,1.06,0,0,0,.84.36,1,1,0,0,0,.84-.35,2.08,2.08,0,0,0,.29-1.27,1.67,1.67,0,0,0-.31-1.12,1,1,0,0,0-.84-.35,1,1,0,0,0-.81.36A1.79,1.79,0,0,0,205.19,40.5Z" transform="translate(0 21.27)"/><path class="cls-8" d="M212.35,37.76h1.57l2.05,3v-3h1.58v5.45H216l-2-3v3h-1.58Z" transform="translate(0 21.27)"/><path class="cls-8" d="M221,37.76h1.69v4.11h2.62v1.34H221Z" transform="translate(0 21.27)"/><path class="cls-8" d="M228.38,37.76h1.68v5.45h-1.68Z" transform="translate(0 21.27)"/><path class="cls-8" d="M233.56,37.76h1.57l2.05,3v-3h1.59v5.45h-1.59l-2-3v3h-1.58Z" transform="translate(0 21.27)"/><path class="cls-8" d="M242.17,37.76h4.5v1.17h-2.82v.86h2.62V40.9h-2.62V42h2.91v1.23h-4.59Z" transform="translate(0 21.27)"/></g></g></svg>