<svg xmlns="http://www.w3.org/2000/svg" viewBox="0 0 124.02 23.53"><defs><style>.cls-1{fill:none;stroke:#231815;stroke-linecap:round;stroke-linejoin:round;stroke-width:2px;}.cls-2{fill:#fff;}</style></defs><g id="レイヤー_2" data-name="レイヤー 2"><g id="文字"><path class="cls-1" d="M3.3,1.34c.1,0,.22,0,.22.14s-.08.11-.22.16V4.48c0,1.9-.09,3.6-1.26,4.92a3.56,3.56,0,0,0-1-.6C2,7.56,2.13,6.42,2.13,4.34V1.28ZM6,1.81c.07,0,.2,0,.2.14S6.12,2,6,2.11V8.54H4.82V1.74Zm2.65-.53c.08,0,.2,0,.2.13a.11.11,0,0,1-.08.1l-.12.07v7.8H7.5V1.21Z"/><path class="cls-1" d="M22,4.47v.89h-.62V8.29c0,.45-.07,1.16-1.54,1.1a2.79,2.79,0,0,0-.48-1.17,3.16,3.16,0,0,0,.75.1c.21,0,.23,0,.23-.28V5.36h-3.2V4.47h.39a1.7,1.7,0,0,0-.57-.54V8.17h-.8V7.5H14.67V8.58h-.79V2.51l.9.07c.07,0,.13,0,.13.09s-.07.11-.24.18V6.49H15V1.17l.82,0s.12,0,.12.08-.09.12-.19.16v5h.34V2.41l.86,0c.05,0,.14,0,.14.09s-.12.13-.2.16V3.82A2.54,2.54,0,0,0,18.3,2.9H17.21V2h1.43a3.72,3.72,0,0,0,.05-.89l1.09.07c.07,0,.14,0,.14.08s-.13.12-.19.14c0,.17,0,.24,0,.6h2V2.9H20.25a3.62,3.62,0,0,0,1.61,1,2.22,2.22,0,0,0-.63.58ZM19.81,5.81V8.17H18.22v.67h-1v-3Zm1-1.34a4.18,4.18,0,0,1-1.49-1.28A3.64,3.64,0,0,1,18,4.47ZM18.22,6.65V7.3h.67V6.65Z"/><path class="cls-1" d="M34.33,4.94v.93H31.92a4.48,4.48,0,0,0,2.31,1.48,2.09,2.09,0,0,0-.58.73h.88v1H27.69v.28h-1.1V1.43h7.89v1H29.53l.67.24c.06,0,.14,0,.14.14s-.11.13-.21.15-.08.17-.1.23H33.7v1H31.63c0,.26,0,.58-.05.83Zm-3.79,0c0-.19,0-.39,0-.83h-1a5.91,5.91,0,0,1-.52.79c-.1-.13-.25-.33-.95-.55a5.34,5.34,0,0,0,1.09-2H27.69v5.7h.86a2.23,2.23,0,0,0-.73-.92,3,3,0,0,0,2.42-1.29H28.07V4.94Zm2.74,3.14A5.44,5.44,0,0,1,31.09,6.4a4.12,4.12,0,0,1-2.44,1.68Z"/><path class="cls-1" d="M41.36,9.35H40.3v-3a8.13,8.13,0,0,1-.8,1.69,3.77,3.77,0,0,0-.75-.74,11.42,11.42,0,0,0,1.48-2.86H38.92v-1H40.3V2.74c-.49.11-.74.15-1,.2A3.43,3.43,0,0,0,38.74,2a7.48,7.48,0,0,0,3.17-.89l.77.76a.21.21,0,0,1,.07.13.1.1,0,0,1-.1.1.6.6,0,0,1-.22-.06c-.64.26-.91.35-1.07.4V3.53h1.28v1H41.36v0a9.19,9.19,0,0,0,1.16,1.6,5,5,0,0,0-.79.76,6.6,6.6,0,0,1-.37-.73Zm5.69-3.71.13,1-.91.17V9.35H45.2V7l-3,.56-.12-.94L45.2,6V1.13l1.15.08c.08,0,.14,0,.14.09s-.13.15-.22.19v4.3Zm-3.68-1.7a7.78,7.78,0,0,1,1.28,1.11,9.45,9.45,0,0,0-.77.83,7.73,7.73,0,0,0-1.24-1.14Zm.21-2a9.51,9.51,0,0,1,1.35,1.2,5.46,5.46,0,0,0-.76.76A10.31,10.31,0,0,0,42.8,2.63Z"/><path class="cls-1" d="M51.54,4.47V3.37h3.52V1.06l1.18.07c.14,0,.2,0,.2.11s-.1.12-.2.15v2h3.48v1.1H56.27A6.55,6.55,0,0,0,59.84,8.6a2.71,2.71,0,0,0-.87.89,7.57,7.57,0,0,1-3.3-3.55,7,7,0,0,1-3.59,3.57,2.75,2.75,0,0,0-.81-1,5.54,5.54,0,0,0,3.67-4Z"/><path class="cls-1" d="M72.26,6.32v.93H68.83V8.47c0,.95-.66,1-2.12,1a3.87,3.87,0,0,0-.35-1.08l1,0c.39,0,.39-.05.39-.52V7.25H64.2V6.32h3.53V5.66l.47.07L69,5.1H65.82V4.19H70.3l.33.64a14,14,0,0,1-1.8,1.49ZM67.85,2.76A5.56,5.56,0,0,0,67,1.44l1-.44a7,7,0,0,1,.91,1.31L68,2.76h1.33a8.6,8.6,0,0,0,1-1.57l1.08.35s.14.05.14.13-.14.13-.31.15c-.31.49-.53.78-.64.94h1.54V5.05H71.1V3.63H65.34V5.05h-1V2.76h1.37a8.77,8.77,0,0,0-.77-1.09l.91-.47a5.4,5.4,0,0,1,.88,1.25,4.42,4.42,0,0,0-.58.31Z"/><path class="cls-1" d="M80,1.86c-.14.37-.56,1.52-.91,2.2a.75.75,0,0,0,.13.16,9.26,9.26,0,0,0,1.58-3.14l1.08.42c.08,0,.11.07.11.1s0,.15-.26.13a12.82,12.82,0,0,1-.63,1.39c.15,0,.25.09.25.16s0,.1-.18.16V9.38h-1V4.59L80,4.87a2.64,2.64,0,0,0-.66-.51,2.9,2.9,0,0,1,.58,1.69c0,1.22-.9,1.41-1.57,1.47a1.66,1.66,0,0,0-.4-.93V9.37h-1V1.47h2.65Zm-2.08.56v4a2.64,2.64,0,0,0,.4,0c.46,0,.58-.12.58-.5a2.61,2.61,0,0,0-.84-1.85,8.64,8.64,0,0,0,.63-1.72Zm4.23,2.22a10.16,10.16,0,0,1,.8,1.67,4.65,4.65,0,0,0-.92.46,7.45,7.45,0,0,0-.77-1.69ZM85,3.22v1H84.2v4c0,.84-.32,1.18-1.66,1.21a3.38,3.38,0,0,0-.42-1.16,5.21,5.21,0,0,0,.7.06c.2,0,.32,0,.32-.29V4.2h-1.7v-1h1.7V1.13l1.08.07c.09,0,.17.05.17.12s0,.09-.19.19V3.22Z"/><path class="cls-1" d="M92.27,7.93c.31,0,.68,0,1.4,0V7.37H92.08v2h-1V6.67h2.62V6.39h-2V4.65h2V4.39l-1.08,0c-.52,0-.89,0-1.18,0a1.54,1.54,0,0,0-.28-.71c.28,0,.62,0,1.22,0A16.6,16.6,0,0,0,96,3.36H90.87c0,3,0,4.42-.82,6a1.83,1.83,0,0,0-1-.49c.8-1.37.8-2.52.8-5V1.41h7.31v2h-.7l.45.46a.14.14,0,0,1,0,.11.09.09,0,0,1-.09.1A.27.27,0,0,1,96.68,4a7.73,7.73,0,0,1-2,.37v.33h2.1V6.39h-2.1v.28h2.76V8.38c0,.68-.28,1-1.2,1a4.1,4.1,0,0,1-.42,0,2.2,2.2,0,0,0-.25-.81l-.22.13c0-.24,0-.26,0-.35-.72.11-2.06.24-2.62.27-.07.11-.09.14-.15.14s-.12-.07-.13-.16Zm-1.4-5.8v.48h5.27V2.13Zm2.8,3.16h-1v.44h1Zm1,.44h1.17V5.29H94.66Zm0,2.09a4.42,4.42,0,0,0,.52-.06c-.05-.13-.06-.18-.08-.24l.51-.15h-1Zm1.15-.45c.11.35.26.77.31,1l-.18.05a.89.89,0,0,0,.29.05c.21,0,.22-.09.22-.2v-.9Z"/><path class="cls-1" d="M110.14,1.69v.88h-8.23V1.69h3.53v-.6l1.16,0s.17,0,.17.1-.09.12-.15.15v.33Zm-4.91,6.67v.42h-1V6.4h3.67V8.31a3.54,3.54,0,0,0,.53.08c.14,0,.24-.05.24-.33v-2h-5.22V9.37h-1.1V5.26h7.39v3.1c0,.76-.28,1.06-1.53,1.08a2.26,2.26,0,0,0-.48-1.08Zm3.19-5.43v2h-4.78v-2Zm-3.74.73v.47h2.7V3.66Zm.55,3.46V7.6h1.61V7.12Z"/><path class="cls-1" d="M116.63,9.39h-1v-3a8,8,0,0,1-.7,1.29,2.24,2.24,0,0,0-.76-.85,6.74,6.74,0,0,0,1.43-3.08h-1.11V2.85h1.14V1.13l1,.05c.07,0,.2,0,.2.1s-.09.15-.18.21V2.85h1V2.11h2v-1l1.09,0c.06,0,.21,0,.21.12s-.12.14-.21.16v.66h2.07v1h-5.05v.73h-1.11v0a6.12,6.12,0,0,0,1.28,2.05,2.08,2.08,0,0,0-.75.62,10.38,10.38,0,0,1-.53-1Zm3-5.89c.08,0,.17.08.17.16s-.15.13-.25.15A6.8,6.8,0,0,1,118.92,5l.67-.26a7.42,7.42,0,0,0,.59,1.37,4.36,4.36,0,0,0,.52-1.43l1,.41a8.66,8.66,0,0,0-1.17-1.46l.91-.52A8,8,0,0,1,122.9,5a2.66,2.66,0,0,0-.9.53l-.19-.32s-.06.06-.19.06A7.54,7.54,0,0,1,120.85,7,5.64,5.64,0,0,0,123,8.45a4.2,4.2,0,0,0-.7.93,6.64,6.64,0,0,1-2.11-1.6,6.43,6.43,0,0,1-2.3,1.57,2.43,2.43,0,0,0-.82-.89A5,5,0,0,0,119.54,7a6.65,6.65,0,0,1-.82-1.69,3.26,3.26,0,0,1-.26.37,1.72,1.72,0,0,0-.94-.52,4.85,4.85,0,0,0,1.18-2Z"/><path class="cls-1" d="M24.72,19.32v.93H21.29v1.22c0,1-.67,1-2.12,1a4.23,4.23,0,0,0-.35-1.08l1,0c.38,0,.38,0,.38-.52v-.63H16.65v-.93h3.53v-.66l.47.07.8-.63H18.27v-.91h4.49l.32.64a13.83,13.83,0,0,1-1.79,1.49Zm-4.41-3.56a5.56,5.56,0,0,0-.89-1.32l1-.44a6.92,6.92,0,0,1,.9,1.31l-.84.45h1.33a8.6,8.6,0,0,0,1.05-1.57l1.07.35c.06,0,.15.05.15.13s-.15.13-.31.15c-.31.49-.53.78-.65.94h1.55v2.29H23.56V16.63H17.8v1.42H16.74V15.76h1.37a7.72,7.72,0,0,0-.76-1.09l.91-.47a5.4,5.4,0,0,1,.88,1.25,5.87,5.87,0,0,0-.59.31Z"/><path class="cls-1" d="M30.54,22v.3H29.46V14.41h7.66v7.93h-1V22Zm2.31-6.38v-.42H30.54v5.91h5.53V15.24H34c0,.09-.08.12-.24.16v.26h1.72v.64H33.76v.34h2.08v.66H30.76v-.66h2.09V16.3H31.09v-.64Zm2.91,3.79c.06,0,.08.05.08.1s-.09.09-.13.09h-.14l-.49.46a5.1,5.1,0,0,0,.75.23,2.12,2.12,0,0,0-.53.71,5.5,5.5,0,0,1-1.55-.84V21h-.9V19.92a6,6,0,0,1-1.64,1,1.67,1.67,0,0,0-.66-.68,6.11,6.11,0,0,0,2-.94H31.33V17.59h3.94v1.56Zm-3.42-1.24v.45h2v-.45Zm1.47,1.09a4,4,0,0,0,.59.45c.18-.18.3-.29.45-.45Z"/><path class="cls-1" d="M44.29,14.16c.11,0,.21,0,.21.13s0,.08-.21.13a.44.44,0,0,1-.06.1h1.05l.47.49a7.12,7.12,0,0,1-1.19,2.08h2.8a7.87,7.87,0,0,1-1.58-2.79l.94-.34a5.33,5.33,0,0,0,1.15,2.24,3.73,3.73,0,0,0,.58-.83H47.33v-.85h2.11L50,15a12.61,12.61,0,0,1-1.39,1.91A8.44,8.44,0,0,0,50.12,18a3.09,3.09,0,0,0-.68.73h.48v1H46.55v1.88c0,.47,0,.92-1.76.88a2.32,2.32,0,0,0-.47-1.16c.42.05.78.06.83.06.27,0,.27-.1.27-.27V19.74H41.85v-1h.66a1.91,1.91,0,0,0-.73-.5,6.28,6.28,0,0,0,1.3-.95s-.29-.33-.48-.52l-.29.29a2,2,0,0,0-.82-.63A6.53,6.53,0,0,0,43.3,14Zm.45,6.24c.11.06.14.08.14.14s-.06.09-.34.09a8.71,8.71,0,0,1-1.84,1.7,2.62,2.62,0,0,0-.85-.71A6.53,6.53,0,0,0,43.8,19.9Zm-.64-2.75a9.64,9.64,0,0,1-1.25,1.1h6.32a8.35,8.35,0,0,1-1.45-1.25v.64H44.1Zm-.21-1.18a5.32,5.32,0,0,0-.58-.52l-.23.29c.19.15.42.39.58.54Zm-.11-1.18-.05.09c.23.19.32.25.57.47a2,2,0,0,0,.27-.56Zm4.09,4.53a10.44,10.44,0,0,1,1.85,1.85c-.2.18-.68.59-.84.75a11.74,11.74,0,0,0-1.8-2Z"/><path class="cls-1" d="M55.54,19.16c.06,0,.17.05.17.12s-.13.15-.24.18a11,11,0,0,1-.35,2.24,5.77,5.77,0,0,0-1-.23,6.83,6.83,0,0,0,.4-2.46Zm2.16-3.75c.09.06.16.11.16.17s-.09.1-.33.1a19.41,19.41,0,0,1-1.28,2l.75-.09a3.33,3.33,0,0,0-.17-.53l.87-.27a9.31,9.31,0,0,1,.31,1,3.14,3.14,0,0,0,1.26-2.49H58v-.9h4.46c0,3.42-.19,4.08-1.93,4a3.32,3.32,0,0,0-.34-1,3.33,3.33,0,0,0,.48,0c.37,0,.55,0,.63-.52a9,9,0,0,0,.13-1.61H60.27a4.11,4.11,0,0,1-1.64,3.28,2.28,2.28,0,0,0-.58-.63,6.59,6.59,0,0,1,.13.72,5.47,5.47,0,0,0-.93.29,3.87,3.87,0,0,0-.07-.56l-.45.06v3.89h-1V18.63l-1.05.11-.09.16s0,.07-.09.07-.12-.13-.13-.2l-.14-.94c.34,0,.59,0,.93,0l.38-.53a14.74,14.74,0,0,0-1.29-1.08l.51-.74.34.22a8.92,8.92,0,0,0,.76-1.61l.83.44c.08,0,.12.08.12.13s-.19.12-.29.11c-.23.49-.59,1.19-.76,1.47l.28.26a12.16,12.16,0,0,0,.77-1.55Zm.17,3.69a8.44,8.44,0,0,0,.24,2l-.92.19A10.24,10.24,0,0,1,57,19.16ZM59.33,22v.35h-1V18.7h4.09v3.65h-1V22Zm2.09-.91V19.61H59.33v1.48Z"/><path class="cls-1" d="M71.67,14.13c.14,0,.24,0,.24.13s-.06.1-.1.15a8.26,8.26,0,0,0,3.71,2.78,3.64,3.64,0,0,0-.59,1,9.65,9.65,0,0,1-3.86-3.11,10.7,10.7,0,0,1-3.59,3.14,2.08,2.08,0,0,0-.8-.91A7.49,7.49,0,0,0,70.39,14Zm-1.52,3.29c.16,0,.23,0,.23.13s-.08.12-.17.18a7.91,7.91,0,0,1-.29,2.68,4.21,4.21,0,0,1-1.84,2.12,2.36,2.36,0,0,0-.84-.82,2.66,2.66,0,0,0,1.74-2,13.76,13.76,0,0,0,.09-2.38Zm3,0c.14,0,.23,0,.23.11s-.06.11-.14.15v4.7H72.1v-5Z"/><path class="cls-1" d="M81.85,16.86a3.38,3.38,0,0,0,0,5.13l-.3.3a3.77,3.77,0,0,1,0-5.73Z"/><path class="cls-1" d="M87.23,17a1.42,1.42,0,0,1,1.58,1.46c0,1-.67,1.46-1.58,1.46H85.7v1.81h-.59V17Zm-1.53.52v1.89h1.48a.95.95,0,1,0,0-1.89Z"/><path class="cls-1" d="M93.68,17a2.06,2.06,0,0,1,2.08,2.33c0,2-1.24,2.4-2.08,2.4H92.06V17Zm-1,.52v3.69h1c1,0,1.49-.82,1.49-1.86,0-.89-.42-1.83-1.49-1.83Z"/><path class="cls-1" d="M102,17v.52H99.6v1.6h2.05v.52H99.6v2.09H99V17Z"/><path class="cls-1" d="M105.3,22.29,105,22a3.36,3.36,0,0,0,0-5.13l.3-.3a3.77,3.77,0,0,1,0,5.73Z"/><path class="cls-2" d="M3.3,1.34c.1,0,.22,0,.22.14s-.08.11-.22.16V4.48c0,1.9-.09,3.6-1.26,4.92a3.56,3.56,0,0,0-1-.6C2,7.56,2.13,6.42,2.13,4.34V1.28ZM6,1.81c.07,0,.2,0,.2.14S6.12,2,6,2.11V8.54H4.82V1.74Zm2.65-.53c.08,0,.2,0,.2.13a.11.11,0,0,1-.08.1l-.12.07v7.8H7.5V1.21Z"/><path class="cls-2" d="M22,4.47v.89h-.62V8.29c0,.45-.07,1.16-1.54,1.1a2.79,2.79,0,0,0-.48-1.17,3.16,3.16,0,0,0,.75.1c.21,0,.23,0,.23-.28V5.36h-3.2V4.47h.39a1.7,1.7,0,0,0-.57-.54V8.17h-.8V7.5H14.67V8.58h-.79V2.51l.9.07c.07,0,.13,0,.13.09s-.07.11-.24.18V6.49H15V1.17l.82,0s.12,0,.12.08-.09.12-.19.16v5h.34V2.41l.86,0c.05,0,.14,0,.14.09s-.12.13-.2.16V3.82A2.54,2.54,0,0,0,18.3,2.9H17.21V2h1.43a3.72,3.72,0,0,0,.05-.89l1.09.07c.07,0,.14,0,.14.08s-.13.12-.19.14c0,.17,0,.24,0,.6h2V2.9H20.25a3.62,3.62,0,0,0,1.61,1,2.22,2.22,0,0,0-.63.58ZM19.81,5.81V8.17H18.22v.67h-1v-3Zm1-1.34a4.18,4.18,0,0,1-1.49-1.28A3.64,3.64,0,0,1,18,4.47ZM18.22,6.65V7.3h.67V6.65Z"/><path class="cls-2" d="M34.33,4.94v.93H31.92a4.48,4.48,0,0,0,2.31,1.48,2.09,2.09,0,0,0-.58.73h.88v1H27.69v.28h-1.1V1.43h7.89v1H29.53l.67.24c.06,0,.14,0,.14.14s-.11.13-.21.15-.08.17-.1.23H33.7v1H31.63c0,.26,0,.58-.05.83Zm-3.79,0c0-.19,0-.39,0-.83h-1a5.91,5.91,0,0,1-.52.79c-.1-.13-.25-.33-.95-.55a5.34,5.34,0,0,0,1.09-2H27.69v5.7h.86a2.23,2.23,0,0,0-.73-.92,3,3,0,0,0,2.42-1.29H28.07V4.94Zm2.74,3.14A5.44,5.44,0,0,1,31.09,6.4a4.12,4.12,0,0,1-2.44,1.68Z"/><path class="cls-2" d="M41.36,9.35H40.3v-3a8.13,8.13,0,0,1-.8,1.69,3.77,3.77,0,0,0-.75-.74,11.42,11.42,0,0,0,1.48-2.86H38.92v-1H40.3V2.74c-.49.11-.74.15-1,.2A3.43,3.43,0,0,0,38.74,2a7.48,7.48,0,0,0,3.17-.89l.77.76a.21.21,0,0,1,.07.13.1.1,0,0,1-.1.1.6.6,0,0,1-.22-.06c-.64.26-.91.35-1.07.4V3.53h1.28v1H41.36v0a9.19,9.19,0,0,0,1.16,1.6,5,5,0,0,0-.79.76,6.6,6.6,0,0,1-.37-.73Zm5.69-3.71.13,1-.91.17V9.35H45.2V7l-3,.56-.12-.94L45.2,6V1.13l1.15.08c.08,0,.14,0,.14.09s-.13.15-.22.19v4.3Zm-3.68-1.7a7.78,7.78,0,0,1,1.28,1.11,9.45,9.45,0,0,0-.77.83,7.73,7.73,0,0,0-1.24-1.14Zm.21-2a9.51,9.51,0,0,1,1.35,1.2,5.46,5.46,0,0,0-.76.76A10.31,10.31,0,0,0,42.8,2.63Z"/><path class="cls-2" d="M51.54,4.47V3.37h3.52V1.06l1.18.07c.14,0,.2,0,.2.11s-.1.12-.2.15v2h3.48v1.1H56.27A6.55,6.55,0,0,0,59.84,8.6a2.71,2.71,0,0,0-.87.89,7.57,7.57,0,0,1-3.3-3.55,7,7,0,0,1-3.59,3.57,2.75,2.75,0,0,0-.81-1,5.54,5.54,0,0,0,3.67-4Z"/><path class="cls-2" d="M72.26,6.32v.93H68.83V8.47c0,.95-.66,1-2.12,1a3.87,3.87,0,0,0-.35-1.08l1,0c.39,0,.39-.05.39-.52V7.25H64.2V6.32h3.53V5.66l.47.07L69,5.1H65.82V4.19H70.3l.33.64a14,14,0,0,1-1.8,1.49ZM67.85,2.76A5.56,5.56,0,0,0,67,1.44l1-.44a7,7,0,0,1,.91,1.31L68,2.76h1.33a8.6,8.6,0,0,0,1-1.57l1.08.35s.14.05.14.13-.14.13-.31.15c-.31.49-.53.78-.64.94h1.54V5.05H71.1V3.63H65.34V5.05h-1V2.76h1.37a8.77,8.77,0,0,0-.77-1.09l.91-.47a5.4,5.4,0,0,1,.88,1.25,4.42,4.42,0,0,0-.58.31Z"/><path class="cls-2" d="M80,1.86c-.14.37-.56,1.52-.91,2.2a.75.75,0,0,0,.13.16,9.26,9.26,0,0,0,1.58-3.14l1.08.42c.08,0,.11.07.11.1s0,.15-.26.13a12.82,12.82,0,0,1-.63,1.39c.15,0,.25.09.25.16s0,.1-.18.16V9.38h-1V4.59L80,4.87a2.64,2.64,0,0,0-.66-.51,2.9,2.9,0,0,1,.58,1.69c0,1.22-.9,1.41-1.57,1.47a1.66,1.66,0,0,0-.4-.93V9.37h-1V1.47h2.65Zm-2.08.56v4a2.64,2.64,0,0,0,.4,0c.46,0,.58-.12.58-.5a2.61,2.61,0,0,0-.84-1.85,8.64,8.64,0,0,0,.63-1.72Zm4.23,2.22a10.16,10.16,0,0,1,.8,1.67,4.65,4.65,0,0,0-.92.46,7.45,7.45,0,0,0-.77-1.69ZM85,3.22v1H84.2v4c0,.84-.32,1.18-1.66,1.21a3.38,3.38,0,0,0-.42-1.16,5.21,5.21,0,0,0,.7.06c.2,0,.32,0,.32-.29V4.2h-1.7v-1h1.7V1.13l1.08.07c.09,0,.17.05.17.12s0,.09-.19.19V3.22Z"/><path class="cls-2" d="M92.27,7.93c.31,0,.68,0,1.4,0V7.37H92.08v2h-1V6.67h2.62V6.39h-2V4.65h2V4.39l-1.08,0c-.52,0-.89,0-1.18,0a1.54,1.54,0,0,0-.28-.71c.28,0,.62,0,1.22,0A16.6,16.6,0,0,0,96,3.36H90.87c0,3,0,4.42-.82,6a1.83,1.83,0,0,0-1-.49c.8-1.37.8-2.52.8-5V1.41h7.31v2h-.7l.45.46a.14.14,0,0,1,0,.11.09.09,0,0,1-.09.1A.27.27,0,0,1,96.68,4a7.73,7.73,0,0,1-2,.37v.33h2.1V6.39h-2.1v.28h2.76V8.38c0,.68-.28,1-1.2,1a4.1,4.1,0,0,1-.42,0,2.2,2.2,0,0,0-.25-.81l-.22.13c0-.24,0-.26,0-.35-.72.11-2.06.24-2.62.27-.07.11-.09.14-.15.14s-.12-.07-.13-.16Zm-1.4-5.8v.48h5.27V2.13Zm2.8,3.16h-1v.44h1Zm1,.44h1.17V5.29H94.66Zm0,2.09a4.42,4.42,0,0,0,.52-.06c-.05-.13-.06-.18-.08-.24l.51-.15h-1Zm1.15-.45c.11.35.26.77.31,1l-.18.05a.89.89,0,0,0,.29.05c.21,0,.22-.09.22-.2v-.9Z"/><path class="cls-2" d="M110.14,1.69v.88h-8.23V1.69h3.53v-.6l1.16,0s.17,0,.17.1-.09.12-.15.15v.33Zm-4.91,6.67v.42h-1V6.4h3.67V8.31a3.54,3.54,0,0,0,.53.08c.14,0,.24-.05.24-.33v-2h-5.22V9.37h-1.1V5.26h7.39v3.1c0,.76-.28,1.06-1.53,1.08a2.26,2.26,0,0,0-.48-1.08Zm3.19-5.43v2h-4.78v-2Zm-3.74.73v.47h2.7V3.66Zm.55,3.46V7.6h1.61V7.12Z"/><path class="cls-2" d="M116.63,9.39h-1v-3a8,8,0,0,1-.7,1.29,2.24,2.24,0,0,0-.76-.85,6.74,6.74,0,0,0,1.43-3.08h-1.11V2.85h1.14V1.13l1,.05c.07,0,.2,0,.2.1s-.09.15-.18.21V2.85h1V2.11h2v-1l1.09,0c.06,0,.21,0,.21.12s-.12.14-.21.16v.66h2.07v1h-5.05v.73h-1.11v0a6.12,6.12,0,0,0,1.28,2.05,2.08,2.08,0,0,0-.75.62,10.38,10.38,0,0,1-.53-1Zm3-5.89c.08,0,.17.08.17.16s-.15.13-.25.15A6.8,6.8,0,0,1,118.92,5l.67-.26a7.42,7.42,0,0,0,.59,1.37,4.36,4.36,0,0,0,.52-1.43l1,.41a8.66,8.66,0,0,0-1.17-1.46l.91-.52A8,8,0,0,1,122.9,5a2.66,2.66,0,0,0-.9.53l-.19-.32s-.06.06-.19.06A7.54,7.54,0,0,1,120.85,7,5.64,5.64,0,0,0,123,8.45a4.2,4.2,0,0,0-.7.93,6.64,6.64,0,0,1-2.11-1.6,6.43,6.43,0,0,1-2.3,1.57,2.43,2.43,0,0,0-.82-.89A5,5,0,0,0,119.54,7a6.65,6.65,0,0,1-.82-1.69,3.26,3.26,0,0,1-.26.37,1.72,1.72,0,0,0-.94-.52,4.85,4.85,0,0,0,1.18-2Z"/><path class="cls-2" d="M24.72,19.32v.93H21.29v1.22c0,1-.67,1-2.12,1a4.23,4.23,0,0,0-.35-1.08l1,0c.38,0,.38,0,.38-.52v-.63H16.65v-.93h3.53v-.66l.47.07.8-.63H18.27v-.91h4.49l.32.64a13.83,13.83,0,0,1-1.79,1.49Zm-4.41-3.56a5.56,5.56,0,0,0-.89-1.32l1-.44a6.92,6.92,0,0,1,.9,1.31l-.84.45h1.33a8.6,8.6,0,0,0,1.05-1.57l1.07.35c.06,0,.15.05.15.13s-.15.13-.31.15c-.31.49-.53.78-.65.94h1.55v2.29H23.56V16.63H17.8v1.42H16.74V15.76h1.37a7.72,7.72,0,0,0-.76-1.09l.91-.47a5.4,5.4,0,0,1,.88,1.25,5.87,5.87,0,0,0-.59.31Z"/><path class="cls-2" d="M30.54,22v.3H29.46V14.41h7.66v7.93h-1V22Zm2.31-6.38v-.42H30.54v5.91h5.53V15.24H34c0,.09-.08.12-.24.16v.26h1.72v.64H33.76v.34h2.08v.66H30.76v-.66h2.09V16.3H31.09v-.64Zm2.91,3.79c.06,0,.08.05.08.1s-.09.09-.13.09h-.14l-.49.46a5.1,5.1,0,0,0,.75.23,2.12,2.12,0,0,0-.53.71,5.5,5.5,0,0,1-1.55-.84V21h-.9V19.92a6,6,0,0,1-1.64,1,1.67,1.67,0,0,0-.66-.68,6.11,6.11,0,0,0,2-.94H31.33V17.59h3.94v1.56Zm-3.42-1.24v.45h2v-.45Zm1.47,1.09a4,4,0,0,0,.59.45c.18-.18.3-.29.45-.45Z"/><path class="cls-2" d="M44.29,14.16c.11,0,.21,0,.21.13s0,.08-.21.13a.44.44,0,0,1-.06.1h1.05l.47.49a7.12,7.12,0,0,1-1.19,2.08h2.8a7.87,7.87,0,0,1-1.58-2.79l.94-.34a5.33,5.33,0,0,0,1.15,2.24,3.73,3.73,0,0,0,.58-.83H47.33v-.85h2.11L50,15a12.61,12.61,0,0,1-1.39,1.91A8.44,8.44,0,0,0,50.12,18a3.09,3.09,0,0,0-.68.73h.48v1H46.55v1.88c0,.47,0,.92-1.76.88a2.32,2.32,0,0,0-.47-1.16c.42.05.78.06.83.06.27,0,.27-.1.27-.27V19.74H41.85v-1h.66a1.91,1.91,0,0,0-.73-.5,6.28,6.28,0,0,0,1.3-.95s-.29-.33-.48-.52l-.29.29a2,2,0,0,0-.82-.63A6.53,6.53,0,0,0,43.3,14Zm.45,6.24c.11.06.14.08.14.14s-.06.09-.34.09a8.71,8.71,0,0,1-1.84,1.7,2.62,2.62,0,0,0-.85-.71A6.53,6.53,0,0,0,43.8,19.9Zm-.64-2.75a9.64,9.64,0,0,1-1.25,1.1h6.32a8.35,8.35,0,0,1-1.45-1.25v.64H44.1Zm-.21-1.18a5.32,5.32,0,0,0-.58-.52l-.23.29c.19.15.42.39.58.54Zm-.11-1.18-.05.09c.23.19.32.25.57.47a2,2,0,0,0,.27-.56Zm4.09,4.53a10.44,10.44,0,0,1,1.85,1.85c-.2.18-.68.59-.84.75a11.74,11.74,0,0,0-1.8-2Z"/><path class="cls-2" d="M55.54,19.16c.06,0,.17.05.17.12s-.13.15-.24.18a11,11,0,0,1-.35,2.24,5.77,5.77,0,0,0-1-.23,6.83,6.83,0,0,0,.4-2.46Zm2.16-3.75c.09.06.16.11.16.17s-.09.1-.33.1a19.41,19.41,0,0,1-1.28,2l.75-.09a3.33,3.33,0,0,0-.17-.53l.87-.27a9.31,9.31,0,0,1,.31,1,3.14,3.14,0,0,0,1.26-2.49H58v-.9h4.46c0,3.42-.19,4.08-1.93,4a3.32,3.32,0,0,0-.34-1,3.33,3.33,0,0,0,.48,0c.37,0,.55,0,.63-.52a9,9,0,0,0,.13-1.61H60.27a4.11,4.11,0,0,1-1.64,3.28,2.28,2.28,0,0,0-.58-.63,6.59,6.59,0,0,1,.13.72,5.47,5.47,0,0,0-.93.29,3.87,3.87,0,0,0-.07-.56l-.45.06v3.89h-1V18.63l-1.05.11-.09.16s0,.07-.09.07-.12-.13-.13-.2l-.14-.94c.34,0,.59,0,.93,0l.38-.53a14.74,14.74,0,0,0-1.29-1.08l.51-.74.34.22a8.92,8.92,0,0,0,.76-1.61l.83.44c.08,0,.12.08.12.13s-.19.12-.29.11c-.23.49-.59,1.19-.76,1.47l.28.26a12.16,12.16,0,0,0,.77-1.55Zm.17,3.69a8.44,8.44,0,0,0,.24,2l-.92.19A10.24,10.24,0,0,1,57,19.16ZM59.33,22v.35h-1V18.7h4.09v3.65h-1V22Zm2.09-.91V19.61H59.33v1.48Z"/><path class="cls-2" d="M71.67,14.13c.14,0,.24,0,.24.13s-.06.1-.1.15a8.26,8.26,0,0,0,3.71,2.78,3.64,3.64,0,0,0-.59,1,9.65,9.65,0,0,1-3.86-3.11,10.7,10.7,0,0,1-3.59,3.14,2.08,2.08,0,0,0-.8-.91A7.49,7.49,0,0,0,70.39,14Zm-1.52,3.29c.16,0,.23,0,.23.13s-.08.12-.17.18a7.91,7.91,0,0,1-.29,2.68,4.21,4.21,0,0,1-1.84,2.12,2.36,2.36,0,0,0-.84-.82,2.66,2.66,0,0,0,1.74-2,13.76,13.76,0,0,0,.09-2.38Zm3,0c.14,0,.23,0,.23.11s-.06.11-.14.15v4.7H72.1v-5Z"/><path class="cls-2" d="M81.85,16.86a3.38,3.38,0,0,0,0,5.13l-.3.3a3.77,3.77,0,0,1,0-5.73Z"/><path class="cls-2" d="M87.23,17a1.42,1.42,0,0,1,1.58,1.46c0,1-.67,1.46-1.58,1.46H85.7v1.81h-.59V17Zm-1.53.52v1.89h1.48a.95.95,0,1,0,0-1.89Z"/><path class="cls-2" d="M93.68,17a2.06,2.06,0,0,1,2.08,2.33c0,2-1.24,2.4-2.08,2.4H92.06V17Zm-1,.52v3.69h1c1,0,1.49-.82,1.49-1.86,0-.89-.42-1.83-1.49-1.83Z"/><path class="cls-2" d="M102,17v.52H99.6v1.6h2.05v.52H99.6v2.09H99V17Z"/><path class="cls-2" d="M105.3,22.29,105,22a3.36,3.36,0,0,0,0-5.13l.3-.3a3.77,3.77,0,0,1,0,5.73Z"/></g></g></svg>