<svg xmlns="http://www.w3.org/2000/svg" viewBox="0 0 79.45 17.3"><defs><style>.cls-1{fill:#e84572;}.cls-2{fill:#00a0e9;}.cls-3{fill:#13ae67;}.cls-4{fill:#ea5514;}.cls-5{fill:#8fc31f;}</style></defs><g id="レイヤー_2" data-name="レイヤー 2"><g id="文字"><path class="cls-1" d="M0,12.47l4-1.33a2.29,2.29,0,0,0,.53,1.35,1.81,1.81,0,0,0,1.85.33A2.83,2.83,0,0,0,7.77,12a1.72,1.72,0,0,0,.49-1.11.93.93,0,0,0-.47-.82,4.32,4.32,0,0,0-2.15-.21,7.32,7.32,0,0,1-3.94-.6A2.48,2.48,0,0,1,.51,7a4.37,4.37,0,0,1,.61-2.15A5.8,5.8,0,0,1,3,2.88,10.36,10.36,0,0,1,6.29,1.45a6.23,6.23,0,0,1,4-.1A3,3,0,0,1,11.89,4l-4,1.29a1.49,1.49,0,0,0-.66-1.15,1.86,1.86,0,0,0-1.4,0,2.24,2.24,0,0,0-1.1.61,1.25,1.25,0,0,0-.37.85.56.56,0,0,0,.3.51,3,3,0,0,0,1.41.12,15.37,15.37,0,0,1,4,.14,2.9,2.9,0,0,1,1.74,1,3.1,3.1,0,0,1,.54,1.86,5.33,5.33,0,0,1-.72,2.61,6.8,6.8,0,0,1-2,2.22A10.09,10.09,0,0,1,6.32,15.5q-3.48.93-4.81,0A3.94,3.94,0,0,1,0,12.47Z"/><path class="cls-2" d="M16,3.42,28.81,0V3.36L24.53,4.51V14.75l-4.21,1.13V5.63L16,6.78Z"/><path class="cls-3" d="M40.82,12.44l-4.77,1.28-.67,2.43L31.09,17.3l5.11-15L40.79,1.1,45.9,13.33l-4.4,1.18ZM40,9.74,38.44,5.25,37,10.54Z"/><path class="cls-4" d="M49.6,17.1V3.5l7-1.87a10.23,10.23,0,0,1,3-.47,2.26,2.26,0,0,1,1.66.8,3,3,0,0,1,.63,2,4.52,4.52,0,0,1-.48,2.08,5.53,5.53,0,0,1-1.33,1.69,7,7,0,0,1-1.48.93,3.73,3.73,0,0,1,1.1.21,2.84,2.84,0,0,1,.67.54,3.68,3.68,0,0,1,.59.68l2,3.4-4.74,1.27L56,11.24a2.17,2.17,0,0,0-.76-.85,1.56,1.56,0,0,0-1,0l-.37.1V16Zm4.22-9.22,1.77-.47a7,7,0,0,0,1.11-.49,1.68,1.68,0,0,0,.95-1.46,1,1,0,0,0-.42-.9,2.35,2.35,0,0,0-1.57.06l-1.84.5Z"/><path class="cls-5" d="M66.67,3.42,79.45,0V3.36L75.16,4.51V14.75L71,15.88V5.63L66.67,6.78Z"/></g></g></svg>